<mxfile host="app.diagrams.net" agent="Mozilla/5.0 (Macintosh; Intel Mac OS X 10_15_7) AppleWebKit/537.36 (KHTML, like Gecko) Chrome/137.0.0.0 Safari/537.36" version="27.1.4">
  <diagram id="FbstBVE6JiylST8Hq-xM" name="L2">
    <mxGraphModel dx="2375" dy="752" grid="0" gridSize="10" guides="1" tooltips="1" connect="1" arrows="1" fold="1" page="0" pageScale="1" pageWidth="1169" pageHeight="827" math="0" shadow="0">
      <root>
        <mxCell id="0" />
        <mxCell id="1" parent="0" />
        <mxCell id="Dg23MXe1iFPbouFXRMG2-50" value="" style="rounded=1;whiteSpace=wrap;html=1;strokeColor=#0070F2;fillColor=#EBF8FF;arcSize=16;absoluteArcSize=1;imageWidth=64;imageHeight=64;strokeWidth=1.5;fontFamily=Arial;" parent="1" vertex="1">
          <mxGeometry x="-1008" y="80" width="837" height="466.88" as="geometry" />
        </mxCell>
        <mxCell id="9_2BVRPRgIGZMdOAFPMG-3" value="" style="shape=image;verticalLabelPosition=bottom;labelBackgroundColor=default;verticalAlign=top;aspect=fixed;imageAspect=0;image=data:image/svg+xml,PHN2ZyB4bWxuczp4bGluaz0iaHR0cDovL3d3dy53My5vcmcvMTk5OS94bGluayIgeG1sbnM9Imh0dHA6Ly93d3cudzMub3JnLzIwMDAvc3ZnIiB2aWV3Qm94PSIwIDAgMTQ0Ljc0NyAzOS44MzIiIGlkPSJhIj48ZGVmcz48bGluZWFyR3JhZGllbnQgZ3JhZGllbnRVbml0cz0idXNlclNwYWNlT25Vc2UiIHkyPSIzOS44MzIiIHgyPSI0MC4yNTgiIHkxPSIwIiB4MT0iNDAuMjU4IiBpZD0iYiI+PHN0b3Agc3RvcC1jb2xvcj0iIzAwYjhmMSIgb2Zmc2V0PSIwIi8+PHN0b3Agc3RvcC1jb2xvcj0iIzAwYjVlZiIgb2Zmc2V0PSIuMDE2Ii8+PHN0b3Agc3RvcC1jb2xvcj0iIzBkOTBkOCIgb2Zmc2V0PSIuMzA4Ii8+PHN0b3Agc3RvcC1jb2xvcj0iIzE2NzVjOCIgb2Zmc2V0PSIuNTc4Ii8+PHN0b3Agc3RvcC1jb2xvcj0iIzFjNjRiZSIgb2Zmc2V0PSIuODE3Ii8+PHN0b3Agc3RvcC1jb2xvcj0iIzFlNWZiYiIgb2Zmc2V0PSIxIi8+PC9saW5lYXJHcmFkaWVudD48L2RlZnM+PHBvbHlsaW5lIGZpbGwtcnVsZT0iZXZlbm9kZCIgZmlsbD0idXJsKCNiKSIgcG9pbnRzPSIwIDM5LjgzMiA0MC42OTIgMzkuODMyIDgwLjUxNyAwIDAgMCAwIDM5LjgzMiIvPjxwYXRoIGZpbGwtcnVsZT0iZXZlbm9kZCIgZmlsbD0iI2ZmZiIgZD0ibTQ3Ljc4Miw3LjQ4OWwtNy45MjUtLjAwNXYxOC44NDVsLTYuOTI0LTE4Ljg0NWgtNi44NjVsLTUuOTEyLDE1Ljc1OWMtLjYzLTMuOTczLTQuNzQtNS4zNDUtNy45NzQtNi4zNzQtMi4xMzUtLjY4Ni00LjQwMS0xLjY5NC00LjM4LTIuODA5LjAxNy0uOTE1LDEuMjE1LTEuNzY1LDMuNTg5LTEuNjM3LDEuNTk1LjA4NCwzLjAwMS4yMTMsNS44LDEuNTYzbDIuNzUzLTQuNzk1Yy0yLjU1NS0xLjMtNi4wODYtMi4xMjEtOC45NzgtMi4xMjRoLS4wMTdjLTMuMzc0LDAtNi4xODUsMS4wOTMtNy45MjgsMi44OTQtMS4yMTQsMS4yNTgtMS44NjksMi44NTYtMS44OTYsNC42MjMtLjA0NCwyLjQzMi44NDgsNC4xNTcsMi43MjEsNS41MzMsMS41ODMsMS4xNiwzLjYwNiwxLjkxMiw1LjM5LDIuNDY1LDIuMjAxLjY4MSwzLjk5NiwxLjI3NCwzLjk3NSwyLjUzOS0uMDE2LjQ1OS0uMTkxLjg4OC0uNTIxLDEuMjM2LS41NDguNTY2LTEuMzkxLjc3OS0yLjU1NS43OTktMi4yNDQuMDQ4LTMuOTEtLjMwMy02LjU2Mi0xLjg3bC0yLjQ0OCw0Ljg2MWMyLjY0NCwxLjUwNiw1Ljc3NiwyLjM4OCw4Ljk3MiwyLjM4OGwuNDExLS4wMDZjMi43ODItLjA1LDUuMDI2LS44NDIsNi44Mi0yLjI4Ni4xMDMtLjA4MS4xOTYtLjE2Ni4yOTEtLjI1bC0uNzk1LDIuMTIzaDcuMmwxLjIwOC0zLjY3NGMxLjI2NS40MzMsMi43MDQuNjcxLDQuMjMyLjY3MSwxLjQ4NywwLDIuODg5LS4yMjksNC4xMzEtLjYzNWwxLjE2NCwzLjYzN2gxMS43NDJ2LTcuNjA3aDIuNTYxYzYuMTg4LDAsOS44NTEtMy4xNTQsOS44NTEtOC40MzYsMC01Ljg4NS0zLjU1Ny04LjU4NS0xMS4xMzItOC41ODVabS0xOC4zMTcsMTYuMTI0Yy0uOTI1LDAtMS43OTItLjE2LTIuNTM5LS40NDNsMi41MTItNy45MjZoLjA0OGwyLjQ2OCw3Ljk0OGMtLjc0Mi4yNjMtMS41ODkuNDIxLTIuNDg4LjQyMVptMTguNzgzLTQuNTUzaC0xLjc0NnYtNi4zODZoMS43NDZjMi4zMjgsMCw0LjE4NS43NzMsNC4xODUsMy4xNTEsMCwyLjQ2MS0xLjg1NywzLjIzNi00LjE4NSwzLjIzNiIvPjxwYXRoIGZpbGw9IiMwMDJhODYiIGQ9Im04MC4yMTcsNy40MDFoMTAuMDYzYzUuNTk1LDAsOC42NzQsMS45MTcsOC42NzQsNi4xNTgsMCwyLjkwMy0xLjUxMyw1LjAxNC00LjMxMSw1LjcsMy4yOS40NTgsNS4yNzgsMi41ODYsNS4yNzgsNS44OTQsMCw1LjAxNC00LjA2NCw3LjAzNy05LjE4NCw3LjAzN2gtMTAuNTIxVjcuNDAxWm0xMy45NjksNi44MjZjMC0yLjE2NC0xLjQ5Ni0yLjk3My00LjI0LTIuOTczaC01LjA0OXY2LjI5OGg0Ljg5MWMzLjIwMiwwLDQuMzk4LTEuMTYxLDQuMzk4LTMuMzI1Wm0xLjAyMSwxMC41MjFjMC0yLjM1Ny0xLjc3Ny0zLjQ2Ni00LjgzOS0zLjQ2NmgtNS40NzF2Ny4wNTVoNS41MDZjMi44MTUsMCw0LjgwNC0uNzc0LDQuODA0LTMuNTg5WiIvPjxwYXRoIGZpbGw9IiMwMDJhODYiIGQ9Im0xMDkuMDUxLDExLjVoLTcuNTgzdi00LjA5OWgxOS44NDZ2NC4wOTloLTcuNTY1djIwLjY5aC00LjY5N1YxMS41WiIvPjxwYXRoIGZpbGw9IiMwMDJhODYiIGQ9Im0xMjUuMTQ4LDcuNDAxaDEwLjUwNGM2LjE5MiwwLDkuMDk2LDMuMTg1LDkuMDk2LDcuODk5LDAsNC4zOTgtMi44MzMsOC4xNDYtOC44NSw4LjE0NmgtNi4wN3Y4Ljc0NGgtNC42OFY3LjQwMVptMTQuOTAyLDcuOTUyYzAtMi41NTEtMS42ODktMy45MjMtNC45NDQtMy45MjNoLTUuMjc4djguMDRoNS40MTljMy4yNzIsMCw0LjgwNC0xLjU4Myw0LjgwNC00LjExN1oiLz48L3N2Zz4=;strokeWidth=1.5;fontFamily=Arial;" parent="1" vertex="1">
          <mxGeometry x="-978" y="101" width="93" height="25.65" as="geometry" />
        </mxCell>
        <mxCell id="JYNAhhOeTUmVkHHW23Wc-1" value="Terraform Provider for SAP BTP" style="rounded=1;whiteSpace=wrap;html=1;strokeColor=#475E75;fillColor=#ffffff;arcSize=12;absoluteArcSize=1;imageWidth=64;imageHeight=64;strokeWidth=1.5;dashed=1;rotation=0;align=left;fontFamily=Arial;" parent="1" vertex="1">
          <mxGeometry x="-1162" y="289" width="113.5" height="50" as="geometry" />
        </mxCell>
        <mxCell id="JYNAhhOeTUmVkHHW23Wc-10" style="edgeStyle=orthogonalEdgeStyle;rounded=0;orthogonalLoop=1;jettySize=auto;html=1;exitX=0.5;exitY=1;exitDx=0;exitDy=0;entryX=0.5;entryY=0;entryDx=0;entryDy=0;endArrow=blockThin;endFill=1;dashed=1;dashPattern=1 2;startArrow=blockThin;startFill=1;strokeColor=#475e75;endSize=4;startSize=4;fontFamily=Arial;" parent="1" source="JYNAhhOeTUmVkHHW23Wc-3" target="JYNAhhOeTUmVkHHW23Wc-5" edge="1">
          <mxGeometry relative="1" as="geometry" />
        </mxCell>
        <mxCell id="JYNAhhOeTUmVkHHW23Wc-3" value="Git-based source code repository" style="rounded=1;whiteSpace=wrap;html=1;strokeColor=#475E75;fillColor=#F5F6F7;arcSize=9;absoluteArcSize=1;imageWidth=64;imageHeight=64;strokeWidth=1.5;align=left;fontColor=#1D2D3E;fontFamily=Arial;" parent="1" vertex="1">
          <mxGeometry x="-838" y="577" width="100" height="30" as="geometry" />
        </mxCell>
        <mxCell id="JYNAhhOeTUmVkHHW23Wc-5" value="Third-party &lt;br&gt;CI/CD server" style="rounded=1;whiteSpace=wrap;html=1;strokeColor=#475E75;fillColor=#F5F6F7;arcSize=9;absoluteArcSize=1;imageWidth=64;imageHeight=64;strokeWidth=1.5;dashed=1;align=left;fontColor=#1D2D3E;fontFamily=Arial;" parent="1" vertex="1">
          <mxGeometry x="-838" y="640" width="100" height="30" as="geometry" />
        </mxCell>
        <mxCell id="Dg23MXe1iFPbouFXRMG2-25" value="" style="rounded=1;whiteSpace=wrap;html=1;strokeColor=#475E75;fillColor=#F5F6F7;arcSize=16;absoluteArcSize=1;imageWidth=64;imageHeight=64;strokeWidth=1.5;fontFamily=Arial;" parent="1" vertex="1">
          <mxGeometry x="-52" y="78" width="297" height="468.88" as="geometry" />
        </mxCell>
        <mxCell id="Dg23MXe1iFPbouFXRMG2-26" value="&lt;font face=&quot;arial&quot;&gt;&lt;span&gt;&lt;span&gt;Your private cloud / data center&lt;/span&gt;&lt;/span&gt;&lt;/font&gt;" style="text;html=1;align=left;verticalAlign=middle;resizable=0;points=[];autosize=1;strokeColor=none;fillColor=none;fontSize=16;fontColor=#1D2D3E;fontFamily=Arial;fontStyle=1" parent="1" vertex="1">
          <mxGeometry x="-38.99999999999994" y="90.64999999999998" width="239" height="31" as="geometry" />
        </mxCell>
        <mxCell id="Dg23MXe1iFPbouFXRMG2-33" value="" style="rounded=1;whiteSpace=wrap;html=1;strokeColor=#0070F2;strokeWidth=1.5;arcSize=16;fillColor=#FFFFFF;perimeterSpacing=0;absoluteArcSize=1;fontFamily=Arial;" parent="1" vertex="1">
          <mxGeometry x="-978" y="209" width="370" height="299" as="geometry" />
        </mxCell>
        <mxCell id="Dg23MXe1iFPbouFXRMG2-34" value="&lt;font face=&quot;arial&quot;&gt;&lt;span&gt;Shared services&lt;/span&gt;&lt;/font&gt;" style="text;html=1;align=left;verticalAlign=middle;resizable=0;points=[];autosize=1;strokeColor=none;fillColor=none;fontSize=16;fontColor=#1D2D3E;fontFamily=Arial;fontStyle=1" parent="1" vertex="1">
          <mxGeometry x="-970" y="216" width="133" height="31" as="geometry" />
        </mxCell>
        <mxCell id="Dg23MXe1iFPbouFXRMG2-38" value="" style="group;fontFamily=Arial;" parent="1" vertex="1" connectable="0">
          <mxGeometry x="-703" y="411" width="156" height="95" as="geometry" />
        </mxCell>
        <mxCell id="Dg23MXe1iFPbouFXRMG2-40" value="&lt;font color=&quot;#1d2d3e&quot; size=&quot;1&quot; face=&quot;arial&quot; style=&quot;&quot;&gt;&lt;b style=&quot;font-size: 14px;&quot;&gt;Continuous Integration and Delivery&lt;br&gt;&lt;/b&gt;&lt;/font&gt;" style="text;html=1;align=center;verticalAlign=top;resizable=1;points=[[0,0.5,0,0,0],[0.21,1,0,0,0],[0.5,1,0,0,0],[0.85,1,0,0,0],[1,0.5,0,0,0]];autosize=0;strokeColor=none;fillColor=none;fontSize=12;fontColor=default;fontFamily=Arial;fixedWidth=1;imageWidth=24;whiteSpace=wrap;labelBackgroundColor=none;" parent="Dg23MXe1iFPbouFXRMG2-38" vertex="1">
          <mxGeometry x="-74" y="49" width="156" height="46" as="geometry" />
        </mxCell>
        <mxCell id="Dg23MXe1iFPbouFXRMG2-10" value="" style="rounded=1;whiteSpace=wrap;html=1;strokeColor=#0070F2;fillColor=#EBF8FF;arcSize=16;absoluteArcSize=1;imageWidth=64;imageHeight=64;strokeWidth=1.5;fontFamily=Arial;" parent="Dg23MXe1iFPbouFXRMG2-38" vertex="1">
          <mxGeometry x="-263.5" y="-156" width="186.5" height="99" as="geometry" />
        </mxCell>
        <mxCell id="Dg23MXe1iFPbouFXRMG2-14" value="" style="group;fontFamily=Arial;" parent="Dg23MXe1iFPbouFXRMG2-38" vertex="1" connectable="0">
          <mxGeometry x="-148.5" y="-152" width="110" height="96" as="geometry" />
        </mxCell>
        <mxCell id="Dg23MXe1iFPbouFXRMG2-16" value="&lt;font color=&quot;#1d2d3e&quot; face=&quot;arial&quot; style=&quot;font-size: 10px;&quot;&gt;&lt;b style=&quot;font-size: 10px;&quot;&gt;Cloud Logging&lt;br style=&quot;font-size: 10px;&quot;&gt;&lt;/b&gt;&lt;/font&gt;" style="text;html=1;align=center;verticalAlign=top;resizable=1;points=[[0,0.5,0,0,0],[0.21,1,0,0,0],[0.5,1,0,0,0],[0.85,1,0,0,0],[1,0.5,0,0,0]];autosize=0;strokeColor=none;fillColor=none;fontSize=10;fontColor=default;fontFamily=Arial;fixedWidth=1;imageWidth=24;whiteSpace=wrap;labelBackgroundColor=none;" parent="Dg23MXe1iFPbouFXRMG2-14" vertex="1">
          <mxGeometry x="-31" y="39.410526315789475" width="110" height="46.48421052631579" as="geometry" />
        </mxCell>
        <mxCell id="Dg23MXe1iFPbouFXRMG2-49" value="&lt;font color=&quot;#1d2d3e&quot; face=&quot;arial&quot; style=&quot;font-size: 20px;&quot;&gt;&lt;b style=&quot;font-size: 20px;&quot;&gt;...&lt;br style=&quot;font-size: 20px;&quot;&gt;&lt;/b&gt;&lt;/font&gt;" style="text;html=1;align=center;verticalAlign=top;resizable=1;points=[[0,0.5,0,0,0],[0.21,1,0,0,0],[0.5,1,0,0,0],[0.85,1,0,0,0],[1,0.5,0,0,0]];autosize=0;strokeColor=none;fillColor=none;fontSize=20;fontColor=default;fontFamily=Arial;fixedWidth=1;imageWidth=24;whiteSpace=wrap;labelBackgroundColor=none;" parent="Dg23MXe1iFPbouFXRMG2-38" vertex="1">
          <mxGeometry x="-190.5" y="-101.5" width="41" height="28" as="geometry" />
        </mxCell>
        <mxCell id="Dg23MXe1iFPbouFXRMG2-11" value="" style="group;fontFamily=Arial;" parent="Dg23MXe1iFPbouFXRMG2-38" vertex="1" connectable="0">
          <mxGeometry x="-262.5" y="-150" width="110" height="95" as="geometry" />
        </mxCell>
        <mxCell id="Dg23MXe1iFPbouFXRMG2-13" value="&lt;font color=&quot;#1d2d3e&quot; face=&quot;arial&quot; style=&quot;font-size: 10px;&quot;&gt;&lt;b style=&quot;font-size: 10px;&quot;&gt;Automation Pilot&lt;br style=&quot;font-size: 10px;&quot;&gt;&lt;/b&gt;&lt;/font&gt;" style="text;html=1;align=center;verticalAlign=top;resizable=1;points=[[0,0.5,0,0,0],[0.21,1,0,0,0],[0.5,1,0,0,0],[0.85,1,0,0,0],[1,0.5,0,0,0]];autosize=0;strokeColor=none;fillColor=none;fontSize=10;fontColor=default;fontFamily=Arial;fixedWidth=1;imageWidth=24;whiteSpace=wrap;labelBackgroundColor=none;" parent="Dg23MXe1iFPbouFXRMG2-11" vertex="1">
          <mxGeometry x="-5" y="37" width="112.39" height="47" as="geometry" />
        </mxCell>
        <mxCell id="Psehi_XRF0l5fgB3HZDR-4" value="" style="shape=mxgraph.sap.icon;labelPosition=center;verticalLabelPosition=bottom;align=center;verticalAlign=top;strokeWidth=1;strokeColor=#D5DADD;fillColor=#EDEFF0;gradientColor=#FCFCFC;gradientDirection=west;aspect=fixed;SAPIcon=SAP_Automation_Pilot" vertex="1" parent="Dg23MXe1iFPbouFXRMG2-11">
          <mxGeometry x="31.5" width="40" height="40" as="geometry" />
        </mxCell>
        <mxCell id="Psehi_XRF0l5fgB3HZDR-6" value="" style="shape=mxgraph.sap.icon;labelPosition=center;verticalLabelPosition=bottom;align=center;verticalAlign=top;strokeWidth=1;strokeColor=#D5DADD;fillColor=#EDEFF0;gradientColor=#FCFCFC;gradientDirection=west;aspect=fixed;SAPIcon=SAP_Cloud_Logging" vertex="1" parent="Dg23MXe1iFPbouFXRMG2-38">
          <mxGeometry x="-145.5" y="-149" width="40" height="40" as="geometry" />
        </mxCell>
        <mxCell id="Dg23MXe1iFPbouFXRMG2-57" value="" style="rounded=1;whiteSpace=wrap;html=1;strokeColor=#0070F2;strokeWidth=1.5;arcSize=16;fillColor=#FFFFFF;perimeterSpacing=0;absoluteArcSize=1;fontFamily=Arial;" parent="1" vertex="1">
          <mxGeometry x="-308" y="206" width="110" height="299" as="geometry" />
        </mxCell>
        <mxCell id="Dg23MXe1iFPbouFXRMG2-44" value="" style="shape=image;verticalLabelPosition=bottom;labelBackgroundColor=default;verticalAlign=top;aspect=fixed;imageAspect=0;image=data:image/svg+xml,PHN2ZyB4bWxuczp4bGluaz0iaHR0cDovL3d3dy53My5vcmcvMTk5OS94bGluayIgeG1sbnM9Imh0dHA6Ly93d3cudzMub3JnLzIwMDAvc3ZnIiB2aWV3Qm94PSIwIDAgMjI5LjQyNyAzOS44MzIiIGlkPSJhIj48ZGVmcz48bGluZWFyR3JhZGllbnQgZ3JhZGllbnRVbml0cz0idXNlclNwYWNlT25Vc2UiIHkyPSIzOS44MzIiIHgyPSI0MC4yNTgiIHkxPSIwIiB4MT0iNDAuMjU4IiBpZD0iYiI+PHN0b3Agc3RvcC1jb2xvcj0iIzAwYjhmMSIgb2Zmc2V0PSIwIi8+PHN0b3Agc3RvcC1jb2xvcj0iIzAwYjVlZiIgb2Zmc2V0PSIuMDE2Ii8+PHN0b3Agc3RvcC1jb2xvcj0iIzBkOTBkOCIgb2Zmc2V0PSIuMzA4Ii8+PHN0b3Agc3RvcC1jb2xvcj0iIzE2NzVjOCIgb2Zmc2V0PSIuNTc4Ii8+PHN0b3Agc3RvcC1jb2xvcj0iIzFjNjRiZSIgb2Zmc2V0PSIuODE3Ii8+PHN0b3Agc3RvcC1jb2xvcj0iIzFlNWZiYiIgb2Zmc2V0PSIxIi8+PC9saW5lYXJHcmFkaWVudD48L2RlZnM+PHBvbHlsaW5lIGZpbGwtcnVsZT0iZXZlbm9kZCIgZmlsbD0idXJsKCNiKSIgcG9pbnRzPSIwIDM5LjgzMiA0MC42OTIgMzkuODMyIDgwLjUxNyAwIDAgMCAwIDM5LjgzMiIvPjxwYXRoIGZpbGwtcnVsZT0iZXZlbm9kZCIgZmlsbD0iI2ZmZiIgZD0ibTQ3Ljc4Miw3LjQ4OWwtNy45MjUtLjAwNXYxOC44NDVsLTYuOTI0LTE4Ljg0NWgtNi44NjVsLTUuOTEyLDE1Ljc1OWMtLjYzLTMuOTczLTQuNzQtNS4zNDUtNy45NzQtNi4zNzQtMi4xMzUtLjY4Ni00LjQwMS0xLjY5NC00LjM4LTIuODA5LjAxNy0uOTE1LDEuMjE1LTEuNzY1LDMuNTg5LTEuNjM3LDEuNTk1LjA4NCwzLjAwMS4yMTMsNS44LDEuNTYzbDIuNzUzLTQuNzk1Yy0yLjU1NS0xLjMtNi4wODYtMi4xMjEtOC45NzgtMi4xMjRoLS4wMTdjLTMuMzc0LDAtNi4xODUsMS4wOTMtNy45MjgsMi44OTQtMS4yMTQsMS4yNTgtMS44NjksMi44NTYtMS44OTYsNC42MjMtLjA0NCwyLjQzMi44NDgsNC4xNTcsMi43MjEsNS41MzMsMS41ODMsMS4xNiwzLjYwNiwxLjkxMiw1LjM5LDIuNDY1LDIuMjAxLjY4MSwzLjk5NiwxLjI3NCwzLjk3NSwyLjUzOS0uMDE2LjQ1OS0uMTkxLjg4OC0uNTIxLDEuMjM2LS41NDguNTY2LTEuMzkxLjc3OS0yLjU1NS43OTktMi4yNDQuMDQ4LTMuOTEtLjMwMy02LjU2Mi0xLjg3bC0yLjQ0OCw0Ljg2MWMyLjY0NCwxLjUwNiw1Ljc3NiwyLjM4OCw4Ljk3MiwyLjM4OGwuNDExLS4wMDZjMi43ODItLjA1LDUuMDI2LS44NDIsNi44Mi0yLjI4Ni4xMDMtLjA4MS4xOTYtLjE2Ni4yOTEtLjI1bC0uNzk1LDIuMTIzaDcuMmwxLjIwOC0zLjY3NGMxLjI2NS40MzMsMi43MDQuNjcxLDQuMjMyLjY3MSwxLjQ4NywwLDIuODg5LS4yMjksNC4xMzEtLjYzNWwxLjE2NCwzLjYzN2gxMS43NDJ2LTcuNjA3aDIuNTYxYzYuMTg4LDAsOS44NTEtMy4xNTQsOS44NTEtOC40MzYsMC01Ljg4NS0zLjU1Ny04LjU4NS0xMS4xMzItOC41ODVabS0xOC4zMTcsMTYuMTI0Yy0uOTI1LDAtMS43OTItLjE2LTIuNTM5LS40NDNsMi41MTItNy45MjZoLjA0OGwyLjQ2OCw3Ljk0OGMtLjc0Mi4yNjMtMS41ODkuNDIxLTIuNDg4LjQyMVptMTguNzgzLTQuNTUzaC0xLjc0NnYtNi4zODZoMS43NDZjMi4zMjgsMCw0LjE4NS43NzMsNC4xODUsMy4xNTEsMCwyLjQ2MS0xLjg1NywzLjIzNi00LjE4NSwzLjIzNiIvPjxwYXRoIGZpbGw9IiMwMDJhODYiIGQ9Im03OC42MDUsMjguMzlsMi45OTEtMy4wMDhjMS41MTMsMS45NywzLjYyNCwzLjI5LDcuMTA3LDMuMjksMi44NSwwLDUuMDE0LS45NSw1LjAxNC0zLjI3MiwwLTIuNDQ1LTIuNDk4LTMuMTQ5LTUuODc2LTMuOTc2LTMuODg4LS45MzMtOC4xMTEtMi4yMTctOC4xMTEtNy4zODksMC00Ljg3NCwzLjk5NC03LjAwMiw5LjEzMS03LjAwMiw0LjA0NiwwLDYuOTY3LDEuMzM3LDguODg1LDMuNTcybC0yLjkwMywyLjkwM2MtMS41My0xLjc0Mi0zLjQzMS0yLjY5Mi02LjE0LTIuNjkyLTMuMDYxLDAtNC4zODEsMS4yNjctNC4zODEsMi45NTYsMCwyLjIzNCwyLjI3LDIuODMzLDUuNDAxLDMuNjI1LDQuMTcuOTg1LDguNjA0LDIuMTY0LDguNjA0LDcuNjUzLDAsNC40NTEtMy4zMjUsNy40OTUtOS43MTEsNy40OTUtNC42OCwwLTcuOTg3LTEuNTY2LTEwLjAxMS00LjE1MloiLz48cGF0aCBmaWxsPSIjMDAyYTg2IiBkPSJtMTA5Ljk0LDYuMjc1aDMuODdsLTEwLjg1NCwyNy4wNDFoLTMuODcxbDEwLjg1NS0yNy4wNDFaIi8+PHBhdGggZmlsbD0iIzAwMmE4NiIgZD0ibTEyMy40NTYsMjcuMjk5aC0xMS4zNjV2LTMuNjc3bDEwLjgxOS0xNi4yMjFoNC43MTV2MTYuMjU2aDMuMzA4djMuNjQyaC0zLjMwOHY0Ljg5MWgtNC4xNjl2LTQuODkxWm0wLTMuNjQydi04LjA0YzAtLjk4NSwwLTIuMTgyLjA3LTMuMjItLjMzNS42MTYtLjg5NywxLjQ3OC0xLjI2NywyLjA3NmwtNS4wNjcsNy42Yy0uMjk5LjQ0LS43OTIsMS4xNzktMS4wOTEsMS41ODNoNy4zNTRaIi8+PHBhdGggZmlsbD0iIzAwMmE4NiIgZD0ibTEzNC4xMjQsNy40MDFoNC42OHY5LjgxN2gxMC45NzlWNy40MDFoNC42OTd2MjQuNzg5aC00LjY5N3YtMTAuNjYyaC0xMC45Nzl2MTAuNjYyaC00LjY4VjcuNDAxWiIvPjxwYXRoIGZpbGw9IiMwMDJhODYiIGQ9Im0xNjUuODUsNy40MDFoNS40NzJsOS4wOTYsMjQuNzg5aC00LjgwM2wtMi4wMjMtNi4wMzVoLTEwLjExNmwtMi4wMjMsNi4wMzVoLTQuNjhsOS4wNzgtMjQuNzg5Wm02LjQ3NSwxNC45NzJsLTIuNTMzLTcuNTY1Yy0uNDIzLTEuMjMxLTEuMDAzLTIuOTAzLTEuMjY4LTMuODE4LS4yNjQuOTE1LS44MDksMi41ODYtMS4yMzEsMy44MThsLTIuNTMzLDcuNTY1aDcuNTY1WiIvPjxwYXRoIGZpbGw9IiMwMDJhODYiIGQ9Im0xODIuNjkzLDcuNDAxaDUuNTA3bDExLjIwNywxOS41NDZjLS4wODgtMS4wMDMtLjE1OC0zLjI1NS0uMTU4LTUuNDU0VjcuNDAxaDQuMjR2MjQuNzg5aC01LjY0N2wtMTEuMDY2LTE5LjNjLjA4OCwxLjAwMy4xNTgsMy4yMzcuMTU4LDUuNDU0djEzLjg0NmgtNC4yNFY3LjQwMVoiLz48cGF0aCBmaWxsPSIjMDAyYTg2IiBkPSJtMjE0Ljg1OSw3LjQwMWg1LjQ3Mmw5LjA5NiwyNC43ODloLTQuODAzbC0yLjAyMy02LjAzNWgtMTAuMTE2bC0yLjAyMyw2LjAzNWgtNC42OGw5LjA3OC0yNC43ODlabTYuNDc1LDE0Ljk3MmwtMi41MzMtNy41NjVjLS40MjMtMS4yMzEtMS4wMDMtMi45MDMtMS4yNjgtMy44MTgtLjI2NC45MTUtLjgwOSwyLjU4Ni0xLjIzMSwzLjgxOGwtMi41MzMsNy41NjVoNy41NjVaIi8+PC9zdmc+;fontFamily=Arial;" parent="1" vertex="1">
          <mxGeometry x="8" y="271" width="157.71" height="27.55" as="geometry" />
        </mxCell>
        <mxCell id="Dg23MXe1iFPbouFXRMG2-52" value="" style="endArrow=blockThin;html=1;strokeColor=#475E75;bendable=1;rounded=0;endFill=1;endSize=4;strokeWidth=1.5;startSize=4;entryX=0;entryY=0.5;entryDx=0;entryDy=0;exitX=1;exitY=0.5;exitDx=0;exitDy=0;fontFamily=Arial;" parent="1" edge="1">
          <mxGeometry width="50" height="50" relative="1" as="geometry">
            <mxPoint x="-1048.5" y="314" as="sourcePoint" />
            <mxPoint x="-1008" y="313.44000000000005" as="targetPoint" />
            <Array as="points" />
          </mxGeometry>
        </mxCell>
        <mxCell id="Dg23MXe1iFPbouFXRMG2-58" value="&lt;font face=&quot;arial&quot;&gt;&lt;span&gt;PROD&lt;/span&gt;&lt;/font&gt;" style="text;html=1;align=left;verticalAlign=middle;resizable=0;points=[];autosize=1;strokeColor=none;fillColor=none;fontSize=16;fontColor=#1D2D3E;fontFamily=Arial;fontStyle=1" parent="1" vertex="1">
          <mxGeometry x="-298" y="217" width="64" height="31" as="geometry" />
        </mxCell>
        <mxCell id="Dg23MXe1iFPbouFXRMG2-62" value="" style="shape=image;aspect=fixed;image=data:image/svg+xml,PHN2ZyB3aWR0aD0iMjQiIGhlaWdodD0iMjgiIHhtbG5zPSJodHRwOi8vd3d3LnczLm9yZy8yMDAwL3N2ZyIgeG1sbnM6eGxpbms9Imh0dHA6Ly93d3cudzMub3JnLzE5OTkveGxpbmsiIHhtbDpzcGFjZT0icHJlc2VydmUiIG92ZXJmbG93PSJoaWRkZW4iPjxnIHRyYW5zZm9ybT0idHJhbnNsYXRlKC02NTEgLTQ3NykiPjxwYXRoIGQ9Ik0yMy45MTY3IDYuMDE5ODkgMjMuOTE2NyAyMS44OTE2IDExLjk1OCAyNy45MTE0IDAgMjEuODkxNiAwIDYuMDE5ODkgNS45NjU1OSAzLjAwOTk0IDE3Ljk1MTEgOC45NzU1NCAxNy45NTExIDE0Ljk0MTEgMTUuOTI2IDE1LjkyNiAxNS45MjYgMTAuMTc5OSA2LjAwNDcxIDUuMjUzOTcgMi4wMjUxMSA3LjE2OTM0IDIuMDI1MTEgMjAuNzQyMSAxMS45NTggMjUuNjY4IDIxLjg5MTYgMjAuNzQyMSAyMS44OTE2IDcuMTY5MzQgMTEuOTQ0NiAyLjI0NDAzIDEwLjQxNCAzLjAwOTk0IDguMTcyODUgMS44NjEwNyAxMS45NTggMFpNNC4wMDQxMSAxNi45NjU3IDkuOTI4ODQgMTkuOTIxMyA5LjkyODg0IDIyLjM4NDMgNC4wMDQxMSAxOS40ODM1WiIgZmlsbD0iIzU5NTk1OSIgdHJhbnNmb3JtPSJtYXRyaXgoMS4wMDM0OCAwIDAgMSA2NTEgNDc3LjA0NCkiLz48L2c+PC9zdmc+;fontFamily=Arial;" parent="1" vertex="1">
          <mxGeometry x="-269" y="420" width="33.42" height="39" as="geometry" />
        </mxCell>
        <mxCell id="Dg23MXe1iFPbouFXRMG2-63" value="&lt;font color=&quot;#1d2d3e&quot; size=&quot;1&quot; face=&quot;arial&quot; style=&quot;&quot;&gt;&lt;b style=&quot;font-size: 14px;&quot;&gt;App&lt;br&gt;&lt;/b&gt;&lt;/font&gt;" style="text;html=1;align=center;verticalAlign=top;resizable=1;points=[[0,0.5,0,0,0],[0.21,1,0,0,0],[0.5,1,0,0,0],[0.85,1,0,0,0],[1,0.5,0,0,0]];autosize=0;strokeColor=none;fillColor=none;fontSize=12;fontColor=default;fontFamily=Arial;fixedWidth=1;imageWidth=24;whiteSpace=wrap;labelBackgroundColor=none;" parent="1" vertex="1">
          <mxGeometry x="-306" y="467" width="110" height="55.67" as="geometry" />
        </mxCell>
        <mxCell id="Dg23MXe1iFPbouFXRMG2-72" value="" style="endArrow=blockThin;html=1;strokeColor=#475E75;bendable=1;rounded=0;endFill=1;endSize=4;strokeWidth=1.5;startSize=4;startArrow=blockThin;startFill=1;edgeStyle=orthogonalEdgeStyle;entryX=0;entryY=0.5;entryDx=0;entryDy=0;exitX=0.5;exitY=1;exitDx=0;exitDy=0;exitPerimeter=0;fontFamily=Arial;" parent="1" source="Dg23MXe1iFPbouFXRMG2-37" target="JYNAhhOeTUmVkHHW23Wc-3" edge="1">
          <mxGeometry width="50" height="50" relative="1" as="geometry">
            <mxPoint x="-897" y="534" as="sourcePoint" />
            <mxPoint x="-887" y="593" as="targetPoint" />
          </mxGeometry>
        </mxCell>
        <mxCell id="Dg23MXe1iFPbouFXRMG2-54" value="" style="rounded=1;whiteSpace=wrap;html=1;strokeColor=#0070F2;strokeWidth=1.5;arcSize=16;fillColor=#FFFFFF;perimeterSpacing=0;absoluteArcSize=1;fontFamily=Arial;" parent="1" vertex="1">
          <mxGeometry x="-443" y="208" width="110" height="299" as="geometry" />
        </mxCell>
        <mxCell id="Dg23MXe1iFPbouFXRMG2-41" value="" style="group;fontFamily=Arial;" parent="1" vertex="1" connectable="0">
          <mxGeometry x="-757" y="240" width="111" height="105" as="geometry" />
        </mxCell>
        <mxCell id="Dg23MXe1iFPbouFXRMG2-43" value="&lt;font color=&quot;#1d2d3e&quot; size=&quot;1&quot; face=&quot;arial&quot; style=&quot;&quot;&gt;&lt;b style=&quot;font-size: 14px;&quot;&gt;Cloud Transport Management&lt;br&gt;&lt;/b&gt;&lt;/font&gt;" style="text;html=1;align=center;verticalAlign=top;resizable=1;points=[[0,0.5,0,0,0],[0.21,1,0,0,0],[0.5,1,0,0,0],[0.85,1,0,0,0],[1,0.5,0,0,0]];autosize=0;strokeColor=none;fillColor=none;fontSize=12;fontColor=default;fontFamily=Arial;fixedWidth=1;imageWidth=24;whiteSpace=wrap;labelBackgroundColor=none;" parent="Dg23MXe1iFPbouFXRMG2-41" vertex="1">
          <mxGeometry y="60" width="111" height="45" as="geometry" />
        </mxCell>
        <mxCell id="Psehi_XRF0l5fgB3HZDR-3" value="" style="shape=mxgraph.sap.icon;labelPosition=center;verticalLabelPosition=bottom;align=center;verticalAlign=top;strokeWidth=1;strokeColor=#D5DADD;fillColor=#EDEFF0;gradientColor=#FCFCFC;gradientDirection=west;aspect=fixed;SAPIcon=SAP_Cloud_Transport_Management" vertex="1" parent="Dg23MXe1iFPbouFXRMG2-41">
          <mxGeometry x="31" y="14" width="50" height="50" as="geometry" />
        </mxCell>
        <mxCell id="Dg23MXe1iFPbouFXRMG2-55" value="&lt;font face=&quot;arial&quot;&gt;&lt;span&gt;PRE-PROD&lt;/span&gt;&lt;/font&gt;" style="text;html=1;align=left;verticalAlign=middle;resizable=0;points=[];autosize=1;strokeColor=none;fillColor=none;fontSize=16;fontColor=#1D2D3E;fontFamily=Arial;arcSize=16;fontStyle=1" parent="1" vertex="1">
          <mxGeometry x="-433" y="216" width="102" height="31" as="geometry" />
        </mxCell>
        <mxCell id="Dg23MXe1iFPbouFXRMG2-60" value="" style="shape=image;aspect=fixed;image=data:image/svg+xml,PHN2ZyB3aWR0aD0iMjQiIGhlaWdodD0iMjgiIHhtbG5zPSJodHRwOi8vd3d3LnczLm9yZy8yMDAwL3N2ZyIgeG1sbnM6eGxpbms9Imh0dHA6Ly93d3cudzMub3JnLzE5OTkveGxpbmsiIHhtbDpzcGFjZT0icHJlc2VydmUiIG92ZXJmbG93PSJoaWRkZW4iPjxnIHRyYW5zZm9ybT0idHJhbnNsYXRlKC02NTEgLTQ3NykiPjxwYXRoIGQ9Ik0yMy45MTY3IDYuMDE5ODkgMjMuOTE2NyAyMS44OTE2IDExLjk1OCAyNy45MTE0IDAgMjEuODkxNiAwIDYuMDE5ODkgNS45NjU1OSAzLjAwOTk0IDE3Ljk1MTEgOC45NzU1NCAxNy45NTExIDE0Ljk0MTEgMTUuOTI2IDE1LjkyNiAxNS45MjYgMTAuMTc5OSA2LjAwNDcxIDUuMjUzOTcgMi4wMjUxMSA3LjE2OTM0IDIuMDI1MTEgMjAuNzQyMSAxMS45NTggMjUuNjY4IDIxLjg5MTYgMjAuNzQyMSAyMS44OTE2IDcuMTY5MzQgMTEuOTQ0NiAyLjI0NDAzIDEwLjQxNCAzLjAwOTk0IDguMTcyODUgMS44NjEwNyAxMS45NTggMFpNNC4wMDQxMSAxNi45NjU3IDkuOTI4ODQgMTkuOTIxMyA5LjkyODg0IDIyLjM4NDMgNC4wMDQxMSAxOS40ODM1WiIgZmlsbD0iIzU5NTk1OSIgdHJhbnNmb3JtPSJtYXRyaXgoMS4wMDM0OCAwIDAgMSA2NTEgNDc3LjA0NCkiLz48L2c+PC9zdmc+;fontFamily=Arial;" parent="1" vertex="1">
          <mxGeometry x="-407" y="420" width="33.42" height="39" as="geometry" />
        </mxCell>
        <mxCell id="Dg23MXe1iFPbouFXRMG2-61" value="&lt;font color=&quot;#1d2d3e&quot; size=&quot;1&quot; face=&quot;arial&quot; style=&quot;&quot;&gt;&lt;b style=&quot;font-size: 14px;&quot;&gt;App&lt;br&gt;&lt;/b&gt;&lt;/font&gt;" style="text;html=1;align=center;verticalAlign=top;resizable=1;points=[[0,0.5,0,0,0],[0.21,1,0,0,0],[0.5,1,0,0,0],[0.85,1,0,0,0],[1,0.5,0,0,0]];autosize=0;strokeColor=none;fillColor=none;fontSize=12;fontColor=default;fontFamily=Arial;fixedWidth=1;imageWidth=24;whiteSpace=wrap;labelBackgroundColor=none;" parent="1" vertex="1">
          <mxGeometry x="-444" y="467" width="110" height="55.67" as="geometry" />
        </mxCell>
        <mxCell id="Dg23MXe1iFPbouFXRMG2-82" value="" style="group;fontFamily=Arial;" parent="1" vertex="1" connectable="0">
          <mxGeometry x="-20.62" y="301" width="43.620000000000005" height="65.5" as="geometry" />
        </mxCell>
        <mxCell id="Dg23MXe1iFPbouFXRMG2-81" value="&lt;div style=&quot;&quot;&gt;&lt;span style=&quot;font-family: arial; font-size: x-small; background-color: initial;&quot;&gt;&lt;font&gt;DEV&lt;/font&gt;&lt;/span&gt;&lt;/div&gt;" style="text;html=1;align=left;verticalAlign=middle;resizable=0;points=[];autosize=1;strokeColor=none;fillColor=none;fontSize=12;fontColor=#556B82;fontFamily=Arial;" parent="Dg23MXe1iFPbouFXRMG2-82" vertex="1">
          <mxGeometry x="4.620000000000001" y="39.5" width="39" height="26" as="geometry" />
        </mxCell>
        <mxCell id="Dg23MXe1iFPbouFXRMG2-83" value="" style="group;fontFamily=Arial;" parent="1" vertex="1" connectable="0">
          <mxGeometry x="74" y="301" width="75.62" height="65.5" as="geometry" />
        </mxCell>
        <mxCell id="Dg23MXe1iFPbouFXRMG2-85" value="&lt;div style=&quot;&quot;&gt;&lt;span style=&quot;font-family: arial; font-size: x-small; background-color: initial;&quot;&gt;&lt;font&gt;PRE-PROD&lt;/font&gt;&lt;/span&gt;&lt;/div&gt;" style="text;html=1;align=left;verticalAlign=middle;resizable=0;points=[];autosize=1;strokeColor=none;fillColor=none;fontSize=12;fontColor=#556B82;fontFamily=Arial;" parent="Dg23MXe1iFPbouFXRMG2-83" vertex="1">
          <mxGeometry x="-10.379999999999999" y="39.5" width="71" height="26" as="geometry" />
        </mxCell>
        <mxCell id="eP-Ncv_d5URBy7ixXD03-12" value="" style="shape=image;verticalLabelPosition=bottom;labelBackgroundColor=default;verticalAlign=top;aspect=fixed;imageAspect=0;image=data:image/svg+xml,PHN2ZyB4bWxucz0iaHR0cDovL3d3dy53My5vcmcvMjAwMC9zdmciIGZpbGw9Im5vbmUiIHZpZXdCb3g9IjAgMCAxNiAxNiIgaGVpZ2h0PSIxNiIgd2lkdGg9IjE2Ij4mI3hhOzxwYXRoIGZpbGw9InVybCgjcGFpbnQwX2xpbmVhcl83ODhfOSkiIGQ9Ik0xNC41OTQgNC45MDZDMTQuODQ0IDUuMTU2IDE1LjA0MiA1LjQ0OCAxNS4xODggNS43ODFDMTUuMzU0IDYuMDk0IDE1LjQzOCA2LjQzOCAxNS40MzggNi44MTNWMTMuNUMxNS40MzggMTQuMjA4IDE1LjE5OCAxNC43OTIgMTQuNzE4IDE1LjI1QzE0LjI0IDE1LjczIDEzLjY0NiAxNS45NjkgMTIuOTM4IDE1Ljk2OUgzLjAzMDAxQzIuMzQzMDEgMTUuOTY5IDEuNzYwMDEgMTUuNzI5IDEuMjgwMDEgMTUuMjVDMC44MDEwMTIgMTQuNzkyIDAuNTYyMDEyIDE0LjIwOCAwLjU2MjAxMiAxMy41VjYuODEyQzAuNTYyMDEyIDYuMDIxIDAuODQyMDEyIDUuMzg1IDEuNDA1MDEgNC45MDZMNi4zNDQwMSAwLjYyNDk5NUM2LjgxMjI4IDAuMjIwMjA1IDcuNDExMDQgLTAuMDAxNzU1NzkgOC4wMzAwMSAtNC45Nzk3ZS0wNkM4LjY1NTAxIC00Ljk3OTdlLTA2IDkuMTk3MDEgMC4yMDc5OTUgOS42NTUwMSAwLjYyNDk5NUwxNC41OTQgNC45MDZaTTkuMjUwMDEgOS4zNzVINi43NTAwMVYxNC4zNDRIOS4yNTAwMVY5LjM3NVpNMTMuNjg4IDYuODEyQzEzLjY4OCA2LjU0MiAxMy42MDQgNi4zMjIgMTMuNDM4IDYuMTU2TDguNTAwMDEgMS44NzQ5OUM4LjE0NjAxIDEuNjA1IDcuNzgxMDEgMS42MDUgNy40MDYwMSAxLjg3NDk5TDIuNDcwMDEgNi4xNTZDMi4zMDMwMSA2LjMyMyAyLjIyMDAxIDYuNTQyIDIuMjIwMDEgNi44MTNWMTMuNUMyLjIyMDAxIDEzLjc1IDIuMjkzMDEgMTMuOTU4IDIuNDM5MDEgMTQuMTI1QzIuNjAyMzMgMTQuMjY5NiAyLjgxMzkxIDE0LjM0NzcgMy4wMzIwMSAxNC4zNDRINS4wOTUwMVY5LjM3NUM1LjA5NTAxIDguOTE3IDUuMjUxMDEgOC41MzEgNS41NjMwMSA4LjIxOUM1Ljg5NzAxIDcuODg0OTkgNi4yOTMwMSA3LjcxOSA2Ljc1MTAxIDcuNzE5SDkuMjUxMDFDOS43MDkwMSA3LjcxOSAxMC4wOTUgNy44ODQ5OSAxMC40MDcgOC4yMTlDMTAuNzIgOC41MzEgMTAuODc2IDguOTE3IDEwLjg3NiA5LjM3NVYxNC4zNDRIMTIuOTM5QzEzLjE4OSAxNC4zNDQgMTMuMzg2IDE0LjI3MSAxMy41MzIgMTQuMTI1QzEzLjYxNDEgMTQuMDQzNCAxMy42Nzg3IDEzLjk0NTkgMTMuNzIxNyAxMy44Mzg0QzEzLjc2NDcgMTMuNzMwOSAxMy43ODUyIDEzLjYxNTcgMTMuNzgyIDEzLjVMMTMuNjg4IDYuODEyWiIvPiYjeGE7PGRlZnM+JiN4YTs8bGluZWFyR3JhZGllbnQgZ3JhZGllbnRVbml0cz0idXNlclNwYWNlT25Vc2UiIHkyPSIxNS45NjkiIHgyPSI4LjAwMDAxIiB5MT0iLTEuNTI1ODhlLTA1IiB4MT0iOC4wMDAwMSIgaWQ9InBhaW50MF9saW5lYXJfNzg4XzkiPiYjeGE7PHN0b3Agc3RvcC1jb2xvcj0iIzVCNzM4QiIvPiYjeGE7PHN0b3Agc3RvcC1jb2xvcj0iIzIyMzU0OCIgb2Zmc2V0PSIxIi8+JiN4YTs8L2xpbmVhckdyYWRpZW50PiYjeGE7PC9kZWZzPiYjeGE7PC9zdmc+;fontFamily=Arial;" parent="Dg23MXe1iFPbouFXRMG2-83" vertex="1">
          <mxGeometry x="3.9999999999999947" y="10.5" width="30" height="30" as="geometry" />
        </mxCell>
        <mxCell id="Dg23MXe1iFPbouFXRMG2-86" value="" style="group;fontFamily=Arial;" parent="1" vertex="1" connectable="0">
          <mxGeometry x="161" y="301" width="51.620000000000005" height="65.5" as="geometry" />
        </mxCell>
        <mxCell id="Dg23MXe1iFPbouFXRMG2-88" value="&lt;div style=&quot;&quot;&gt;&lt;span style=&quot;font-family: arial; font-size: x-small; background-color: initial;&quot;&gt;&lt;font&gt;PROD&lt;/font&gt;&lt;/span&gt;&lt;/div&gt;" style="text;html=1;align=left;verticalAlign=middle;resizable=0;points=[];autosize=1;strokeColor=none;fillColor=none;fontSize=12;fontColor=#556B82;fontFamily=Arial;" parent="Dg23MXe1iFPbouFXRMG2-86" vertex="1">
          <mxGeometry x="6.000000000000001" y="39.5" width="47" height="26" as="geometry" />
        </mxCell>
        <mxCell id="eP-Ncv_d5URBy7ixXD03-16" value="" style="shape=image;verticalLabelPosition=bottom;labelBackgroundColor=default;verticalAlign=top;aspect=fixed;imageAspect=0;image=data:image/svg+xml,PHN2ZyB4bWxucz0iaHR0cDovL3d3dy53My5vcmcvMjAwMC9zdmciIGZpbGw9Im5vbmUiIHZpZXdCb3g9IjAgMCAxNiAxNiIgaGVpZ2h0PSIxNiIgd2lkdGg9IjE2Ij4mI3hhOzxwYXRoIGZpbGw9InVybCgjcGFpbnQwX2xpbmVhcl83ODhfOSkiIGQ9Ik0xNC41OTQgNC45MDZDMTQuODQ0IDUuMTU2IDE1LjA0MiA1LjQ0OCAxNS4xODggNS43ODFDMTUuMzU0IDYuMDk0IDE1LjQzOCA2LjQzOCAxNS40MzggNi44MTNWMTMuNUMxNS40MzggMTQuMjA4IDE1LjE5OCAxNC43OTIgMTQuNzE4IDE1LjI1QzE0LjI0IDE1LjczIDEzLjY0NiAxNS45NjkgMTIuOTM4IDE1Ljk2OUgzLjAzMDAxQzIuMzQzMDEgMTUuOTY5IDEuNzYwMDEgMTUuNzI5IDEuMjgwMDEgMTUuMjVDMC44MDEwMTIgMTQuNzkyIDAuNTYyMDEyIDE0LjIwOCAwLjU2MjAxMiAxMy41VjYuODEyQzAuNTYyMDEyIDYuMDIxIDAuODQyMDEyIDUuMzg1IDEuNDA1MDEgNC45MDZMNi4zNDQwMSAwLjYyNDk5NUM2LjgxMjI4IDAuMjIwMjA1IDcuNDExMDQgLTAuMDAxNzU1NzkgOC4wMzAwMSAtNC45Nzk3ZS0wNkM4LjY1NTAxIC00Ljk3OTdlLTA2IDkuMTk3MDEgMC4yMDc5OTUgOS42NTUwMSAwLjYyNDk5NUwxNC41OTQgNC45MDZaTTkuMjUwMDEgOS4zNzVINi43NTAwMVYxNC4zNDRIOS4yNTAwMVY5LjM3NVpNMTMuNjg4IDYuODEyQzEzLjY4OCA2LjU0MiAxMy42MDQgNi4zMjIgMTMuNDM4IDYuMTU2TDguNTAwMDEgMS44NzQ5OUM4LjE0NjAxIDEuNjA1IDcuNzgxMDEgMS42MDUgNy40MDYwMSAxLjg3NDk5TDIuNDcwMDEgNi4xNTZDMi4zMDMwMSA2LjMyMyAyLjIyMDAxIDYuNTQyIDIuMjIwMDEgNi44MTNWMTMuNUMyLjIyMDAxIDEzLjc1IDIuMjkzMDEgMTMuOTU4IDIuNDM5MDEgMTQuMTI1QzIuNjAyMzMgMTQuMjY5NiAyLjgxMzkxIDE0LjM0NzcgMy4wMzIwMSAxNC4zNDRINS4wOTUwMVY5LjM3NUM1LjA5NTAxIDguOTE3IDUuMjUxMDEgOC41MzEgNS41NjMwMSA4LjIxOUM1Ljg5NzAxIDcuODg0OTkgNi4yOTMwMSA3LjcxOSA2Ljc1MTAxIDcuNzE5SDkuMjUxMDFDOS43MDkwMSA3LjcxOSAxMC4wOTUgNy44ODQ5OSAxMC40MDcgOC4yMTlDMTAuNzIgOC41MzEgMTAuODc2IDguOTE3IDEwLjg3NiA5LjM3NVYxNC4zNDRIMTIuOTM5QzEzLjE4OSAxNC4zNDQgMTMuMzg2IDE0LjI3MSAxMy41MzIgMTQuMTI1QzEzLjYxNDEgMTQuMDQzNCAxMy42Nzg3IDEzLjk0NTkgMTMuNzIxNyAxMy44Mzg0QzEzLjc2NDcgMTMuNzMwOSAxMy43ODUyIDEzLjYxNTcgMTMuNzgyIDEzLjVMMTMuNjg4IDYuODEyWiIvPiYjeGE7PGRlZnM+JiN4YTs8bGluZWFyR3JhZGllbnQgZ3JhZGllbnRVbml0cz0idXNlclNwYWNlT25Vc2UiIHkyPSIxNS45NjkiIHgyPSI4LjAwMDAxIiB5MT0iLTEuNTI1ODhlLTA1IiB4MT0iOC4wMDAwMSIgaWQ9InBhaW50MF9saW5lYXJfNzg4XzkiPiYjeGE7PHN0b3Agc3RvcC1jb2xvcj0iIzVCNzM4QiIvPiYjeGE7PHN0b3Agc3RvcC1jb2xvcj0iIzIyMzU0OCIgb2Zmc2V0PSIxIi8+JiN4YTs8L2xpbmVhckdyYWRpZW50PiYjeGE7PC9kZWZzPiYjeGE7PC9zdmc+;fontFamily=Arial;" parent="Dg23MXe1iFPbouFXRMG2-86" vertex="1">
          <mxGeometry x="6" y="11" width="30" height="30" as="geometry" />
        </mxCell>
        <mxCell id="Dg23MXe1iFPbouFXRMG2-104" value="" style="endArrow=none;html=1;strokeColor=#5B738B;bendable=1;rounded=1;endFill=0;endSize=3;strokeWidth=3;jumpStyle=gap;fontFamily=Arial;" parent="1" edge="1">
          <mxGeometry width="50" height="50" relative="1" as="geometry">
            <mxPoint x="-111" y="452" as="sourcePoint" />
            <mxPoint x="-111" y="552" as="targetPoint" />
            <Array as="points" />
          </mxGeometry>
        </mxCell>
        <mxCell id="Dg23MXe1iFPbouFXRMG2-105" value="&lt;font style=&quot;font-size: 64px;&quot; face=&quot;arial&quot;&gt;/&lt;/font&gt;" style="text;html=1;align=left;verticalAlign=middle;resizable=0;points=[];autosize=1;strokeColor=none;fillColor=none;fontSize=12;fontColor=#E6E6E6;fontFamily=Arial;" parent="1" vertex="1">
          <mxGeometry x="86" y="111.65" width="36" height="89" as="geometry" />
        </mxCell>
        <mxCell id="Dg23MXe1iFPbouFXRMG2-112" value="" style="endArrow=blockThin;html=1;strokeColor=#475e75;bendable=1;rounded=0;endFill=1;endSize=4;strokeWidth=1.5;startSize=4;startArrow=none;startFill=0;exitX=0.5;exitY=0;exitDx=0;exitDy=0;exitPerimeter=0;entryX=0.5;entryY=1;entryDx=0;entryDy=0;entryPerimeter=0;fontFamily=Arial;" parent="1" target="Dg23MXe1iFPbouFXRMG2-43" edge="1">
          <mxGeometry width="50" height="50" relative="1" as="geometry">
            <mxPoint x="-700.9999999999998" y="413" as="sourcePoint" />
            <mxPoint x="-671" y="394" as="targetPoint" />
            <Array as="points" />
          </mxGeometry>
        </mxCell>
        <mxCell id="Dg23MXe1iFPbouFXRMG2-117" value="" style="endArrow=blockThin;html=1;strokeColor=#475e75;bendable=1;rounded=0;endFill=1;endSize=4;strokeWidth=1.5;startSize=4;startArrow=none;startFill=0;entryX=-0.075;entryY=1.005;entryDx=0;entryDy=0;entryPerimeter=0;exitX=1;exitY=0;exitDx=0;exitDy=0;exitPerimeter=0;fontFamily=Arial;" parent="1" target="Dg23MXe1iFPbouFXRMG2-88" edge="1">
          <mxGeometry width="50" height="50" relative="1" as="geometry">
            <mxPoint x="117" y="415" as="sourcePoint" />
            <mxPoint x="156" y="371" as="targetPoint" />
            <Array as="points" />
          </mxGeometry>
        </mxCell>
        <mxCell id="Dg23MXe1iFPbouFXRMG2-118" value="" style="endArrow=blockThin;html=1;strokeColor=#475e75;bendable=1;rounded=0;endFill=1;endSize=4;strokeWidth=1.5;startSize=4;startArrow=none;startFill=0;exitX=0;exitY=0;exitDx=0;exitDy=0;entryX=0.945;entryY=0.978;entryDx=0;entryDy=0;entryPerimeter=0;exitPerimeter=0;fontFamily=Arial;" parent="1" target="Dg23MXe1iFPbouFXRMG2-81" edge="1">
          <mxGeometry width="50" height="50" relative="1" as="geometry">
            <mxPoint x="69" y="415" as="sourcePoint" />
            <mxPoint x="18" y="367" as="targetPoint" />
            <Array as="points" />
          </mxGeometry>
        </mxCell>
        <mxCell id="Dg23MXe1iFPbouFXRMG2-119" value="" style="endArrow=blockThin;html=1;strokeColor=#475e75;bendable=1;rounded=0;endFill=1;endSize=4;strokeWidth=1.5;startSize=4;startArrow=none;startFill=0;exitX=0.5;exitY=0;exitDx=0;exitDy=0;entryX=0.416;entryY=1.005;entryDx=0;entryDy=0;entryPerimeter=0;exitPerimeter=0;fontFamily=Arial;" parent="1" target="Dg23MXe1iFPbouFXRMG2-85" edge="1">
          <mxGeometry width="50" height="50" relative="1" as="geometry">
            <mxPoint x="93.00000000000045" y="415" as="sourcePoint" />
            <mxPoint x="92" y="366.5" as="targetPoint" />
            <Array as="points" />
          </mxGeometry>
        </mxCell>
        <mxCell id="Dg23MXe1iFPbouFXRMG2-123" value="" style="endArrow=blockThin;html=1;strokeColor=#475e75;bendable=1;rounded=0;endFill=1;endSize=4;strokeWidth=1.5;startSize=4;startArrow=blockThin;startFill=1;exitX=0.5;exitY=0;exitDx=0;exitDy=0;fontFamily=Arial;" parent="1" edge="1">
          <mxGeometry width="50" height="50" relative="1" as="geometry">
            <mxPoint x="92.85500000000002" y="255" as="sourcePoint" />
            <mxPoint x="93" y="223" as="targetPoint" />
            <Array as="points" />
          </mxGeometry>
        </mxCell>
        <mxCell id="T485ckIuW9g4ozf2A3zm-3" value="&lt;p style=&quot;line-height: 100%;&quot;&gt;&lt;b&gt;&lt;font face=&quot;arial black&quot; style=&quot;font-size: 16px;&quot; color=&quot;#ffffff&quot;&gt;3&lt;/font&gt;&lt;/b&gt;&lt;/p&gt;" style="ellipse;whiteSpace=wrap;html=1;aspect=fixed;rotation=0;gradientColor=#a100c2;strokeColor=none;gradientDirection=east;fillColor=#f65af2;rounded=0;pointerEvents=0;fontFamily=Arial;fontSize=12;fontColor=default;spacingTop=4;spacingBottom=4;spacingLeft=4;spacingRight=4;" parent="1" vertex="1">
          <mxGeometry x="-740" y="173.99999999999994" width="30" height="30" as="geometry" />
        </mxCell>
        <mxCell id="T485ckIuW9g4ozf2A3zm-4" value="&lt;p style=&quot;line-height: 100%;&quot;&gt;&lt;b&gt;&lt;font face=&quot;arial black&quot; style=&quot;font-size: 16px;&quot; color=&quot;#ffffff&quot;&gt;4&lt;/font&gt;&lt;/b&gt;&lt;/p&gt;" style="ellipse;whiteSpace=wrap;html=1;aspect=fixed;rotation=0;gradientColor=#a100c2;strokeColor=none;gradientDirection=east;fillColor=#f65af2;rounded=0;pointerEvents=0;fontFamily=Arial;fontSize=12;fontColor=default;spacingTop=4;spacingBottom=4;spacingLeft=4;spacingRight=4;" parent="1" vertex="1">
          <mxGeometry x="-910" y="173.99999999999994" width="30" height="30" as="geometry" />
        </mxCell>
        <mxCell id="eP-Ncv_d5URBy7ixXD03-1" style="rounded=0;orthogonalLoop=1;jettySize=auto;html=1;endArrow=blockThin;endFill=1;strokeColor=#354c5f;strokeWidth=1.5;exitX=1;exitY=0.5;exitDx=0;exitDy=0;entryX=0;entryY=0.5;entryDx=0;entryDy=0;endSize=4;startSize=4;entryPerimeter=0;fontFamily=Arial;" parent="1" source="eP-Ncv_d5URBy7ixXD03-47" edge="1">
          <mxGeometry relative="1" as="geometry">
            <mxPoint x="69" y="439" as="targetPoint" />
            <mxPoint x="-71.14999999999964" y="439.5" as="sourcePoint" />
          </mxGeometry>
        </mxCell>
        <mxCell id="eP-Ncv_d5URBy7ixXD03-2" style="edgeStyle=orthogonalEdgeStyle;rounded=0;orthogonalLoop=1;jettySize=auto;html=1;exitX=0;exitY=0.5;exitDx=0;exitDy=0;endArrow=none;endFill=0;strokeColor=#354c5f;strokeWidth=1.5;entryX=1;entryY=0.5;entryDx=0;entryDy=0;endSize=4;startSize=4;fontFamily=Arial;" parent="1" source="eP-Ncv_d5URBy7ixXD03-47" target="Dg23MXe1iFPbouFXRMG2-62" edge="1">
          <mxGeometry relative="1" as="geometry">
            <mxPoint x="-236" y="437" as="targetPoint" />
            <mxPoint x="-145.3099999999995" y="439.5" as="sourcePoint" />
          </mxGeometry>
        </mxCell>
        <mxCell id="eP-Ncv_d5URBy7ixXD03-11" value="" style="shape=image;verticalLabelPosition=bottom;labelBackgroundColor=default;verticalAlign=top;aspect=fixed;imageAspect=0;image=data:image/svg+xml,PHN2ZyB4bWxucz0iaHR0cDovL3d3dy53My5vcmcvMjAwMC9zdmciIGZpbGw9Im5vbmUiIHZpZXdCb3g9IjAgMCAxNiAxNiIgaGVpZ2h0PSIxNiIgd2lkdGg9IjE2Ij4mI3hhOzxwYXRoIGZpbGw9InVybCgjcGFpbnQwX2xpbmVhcl83ODhfOSkiIGQ9Ik0xNC41OTQgNC45MDZDMTQuODQ0IDUuMTU2IDE1LjA0MiA1LjQ0OCAxNS4xODggNS43ODFDMTUuMzU0IDYuMDk0IDE1LjQzOCA2LjQzOCAxNS40MzggNi44MTNWMTMuNUMxNS40MzggMTQuMjA4IDE1LjE5OCAxNC43OTIgMTQuNzE4IDE1LjI1QzE0LjI0IDE1LjczIDEzLjY0NiAxNS45NjkgMTIuOTM4IDE1Ljk2OUgzLjAzMDAxQzIuMzQzMDEgMTUuOTY5IDEuNzYwMDEgMTUuNzI5IDEuMjgwMDEgMTUuMjVDMC44MDEwMTIgMTQuNzkyIDAuNTYyMDEyIDE0LjIwOCAwLjU2MjAxMiAxMy41VjYuODEyQzAuNTYyMDEyIDYuMDIxIDAuODQyMDEyIDUuMzg1IDEuNDA1MDEgNC45MDZMNi4zNDQwMSAwLjYyNDk5NUM2LjgxMjI4IDAuMjIwMjA1IDcuNDExMDQgLTAuMDAxNzU1NzkgOC4wMzAwMSAtNC45Nzk3ZS0wNkM4LjY1NTAxIC00Ljk3OTdlLTA2IDkuMTk3MDEgMC4yMDc5OTUgOS42NTUwMSAwLjYyNDk5NUwxNC41OTQgNC45MDZaTTkuMjUwMDEgOS4zNzVINi43NTAwMVYxNC4zNDRIOS4yNTAwMVY5LjM3NVpNMTMuNjg4IDYuODEyQzEzLjY4OCA2LjU0MiAxMy42MDQgNi4zMjIgMTMuNDM4IDYuMTU2TDguNTAwMDEgMS44NzQ5OUM4LjE0NjAxIDEuNjA1IDcuNzgxMDEgMS42MDUgNy40MDYwMSAxLjg3NDk5TDIuNDcwMDEgNi4xNTZDMi4zMDMwMSA2LjMyMyAyLjIyMDAxIDYuNTQyIDIuMjIwMDEgNi44MTNWMTMuNUMyLjIyMDAxIDEzLjc1IDIuMjkzMDEgMTMuOTU4IDIuNDM5MDEgMTQuMTI1QzIuNjAyMzMgMTQuMjY5NiAyLjgxMzkxIDE0LjM0NzcgMy4wMzIwMSAxNC4zNDRINS4wOTUwMVY5LjM3NUM1LjA5NTAxIDguOTE3IDUuMjUxMDEgOC41MzEgNS41NjMwMSA4LjIxOUM1Ljg5NzAxIDcuODg0OTkgNi4yOTMwMSA3LjcxOSA2Ljc1MTAxIDcuNzE5SDkuMjUxMDFDOS43MDkwMSA3LjcxOSAxMC4wOTUgNy44ODQ5OSAxMC40MDcgOC4yMTlDMTAuNzIgOC41MzEgMTAuODc2IDguOTE3IDEwLjg3NiA5LjM3NVYxNC4zNDRIMTIuOTM5QzEzLjE4OSAxNC4zNDQgMTMuMzg2IDE0LjI3MSAxMy41MzIgMTQuMTI1QzEzLjYxNDEgMTQuMDQzNCAxMy42Nzg3IDEzLjk0NTkgMTMuNzIxNyAxMy44Mzg0QzEzLjc2NDcgMTMuNzMwOSAxMy43ODUyIDEzLjYxNTcgMTMuNzgyIDEzLjVMMTMuNjg4IDYuODEyWiIvPiYjeGE7PGRlZnM+JiN4YTs8bGluZWFyR3JhZGllbnQgZ3JhZGllbnRVbml0cz0idXNlclNwYWNlT25Vc2UiIHkyPSIxNS45NjkiIHgyPSI4LjAwMDAxIiB5MT0iLTEuNTI1ODhlLTA1IiB4MT0iOC4wMDAwMSIgaWQ9InBhaW50MF9saW5lYXJfNzg4XzkiPiYjeGE7PHN0b3Agc3RvcC1jb2xvcj0iIzVCNzM4QiIvPiYjeGE7PHN0b3Agc3RvcC1jb2xvcj0iIzIyMzU0OCIgb2Zmc2V0PSIxIi8+JiN4YTs8L2xpbmVhckdyYWRpZW50PiYjeGE7PC9kZWZzPiYjeGE7PC9zdmc+;fontFamily=Arial;" parent="1" vertex="1">
          <mxGeometry x="-19.62" y="311" width="30" height="30" as="geometry" />
        </mxCell>
        <mxCell id="eP-Ncv_d5URBy7ixXD03-22" value="" style="group;arcSize=9;fontFamily=Arial;" parent="1" vertex="1" connectable="0">
          <mxGeometry x="-397" y="130" width="199" height="51" as="geometry" />
        </mxCell>
        <mxCell id="eP-Ncv_d5URBy7ixXD03-23" value="" style="rounded=1;whiteSpace=wrap;html=1;strokeColor=#0070F2;strokeWidth=1.5;arcSize=14;fillColor=#FFFFFF;perimeterSpacing=0;fontFamily=Arial;" parent="eP-Ncv_d5URBy7ixXD03-22" vertex="1">
          <mxGeometry x="89" width="110" height="50" as="geometry" />
        </mxCell>
        <mxCell id="eP-Ncv_d5URBy7ixXD03-25" value="&lt;font style=&quot;font-size: 14px;&quot; face=&quot;arial&quot;&gt;&lt;b style=&quot;&quot;&gt;SAP &lt;br&gt;Cloud ALM&lt;/b&gt;&lt;/font&gt;" style="text;html=1;align=left;verticalAlign=middle;resizable=0;points=[];autosize=1;strokeColor=none;fillColor=default;fontSize=12;fontColor=#1d2d3e;fontFamily=Arial;" parent="eP-Ncv_d5URBy7ixXD03-22" vertex="1">
          <mxGeometry x="92.5" y="1" width="91" height="46" as="geometry" />
        </mxCell>
        <mxCell id="eP-Ncv_d5URBy7ixXD03-30" style="edgeStyle=orthogonalEdgeStyle;rounded=0;orthogonalLoop=1;jettySize=auto;html=1;fontSize=18;strokeColor=#475e75;fontFamily=Arial;fontColor=default;targetPerimeterSpacing=0;endSize=4;startSize=4;endArrow=blockThin;endFill=1;strokeWidth=1.5;startArrow=blockThin;startFill=1;entryX=0;entryY=0.5;entryDx=0;entryDy=0;exitX=0.5;exitY=0;exitDx=0;exitDy=0;sourcePerimeterSpacing=0;" parent="1" source="Dg23MXe1iFPbouFXRMG2-10" target="eP-Ncv_d5URBy7ixXD03-23" edge="1">
          <mxGeometry relative="1" as="geometry">
            <mxPoint x="-514" y="189" as="targetPoint" />
            <mxPoint x="-578" y="85" as="sourcePoint" />
            <Array as="points" />
          </mxGeometry>
        </mxCell>
        <mxCell id="eP-Ncv_d5URBy7ixXD03-31" style="edgeStyle=orthogonalEdgeStyle;rounded=0;orthogonalLoop=1;jettySize=auto;html=1;fontSize=18;strokeColor=#475E75;fontFamily=Arial;fontColor=default;targetPerimeterSpacing=0;endSize=4;startSize=4;endArrow=blockThin;endFill=1;strokeWidth=1.5;startArrow=blockThin;startFill=1;entryX=0;entryY=0.5;entryDx=0;entryDy=0;exitX=0.5;exitY=0;exitDx=0;exitDy=0;" parent="1" target="eP-Ncv_d5URBy7ixXD03-23" edge="1">
          <mxGeometry relative="1" as="geometry">
            <mxPoint x="-441" y="309" as="targetPoint" />
            <mxPoint x="-702" y="248.9999999999999" as="sourcePoint" />
            <Array as="points">
              <mxPoint x="-702" y="155" />
            </Array>
          </mxGeometry>
        </mxCell>
        <mxCell id="Dg23MXe1iFPbouFXRMG2-109" value="" style="endArrow=blockThin;html=1;strokeColor=#475e75;bendable=1;rounded=0;endFill=1;endSize=4;strokeWidth=1.5;startSize=4;startArrow=none;startFill=0;exitX=1;exitY=0.5;exitDx=0;exitDy=0;exitPerimeter=0;entryX=0;entryY=0.5;entryDx=0;entryDy=0;entryPerimeter=0;fontFamily=Arial;" parent="1" edge="1">
          <mxGeometry width="50" height="50" relative="1" as="geometry">
            <mxPoint x="-844.5" y="437.5000000000002" as="sourcePoint" />
            <mxPoint x="-725.5" y="437.5000000000002" as="targetPoint" />
            <Array as="points" />
          </mxGeometry>
        </mxCell>
        <mxCell id="Dg23MXe1iFPbouFXRMG2-76" style="edgeStyle=orthogonalEdgeStyle;rounded=0;orthogonalLoop=1;jettySize=auto;html=1;fontSize=18;strokeColor=#475E75;fontFamily=Arial;fontColor=default;targetPerimeterSpacing=15;endSize=4;startSize=4;endArrow=blockThin;endFill=1;strokeWidth=1.5;startArrow=none;startFill=0;entryX=0;entryY=0.5;entryDx=0;entryDy=0;exitX=1;exitY=0.75;exitDx=0;exitDy=0;" parent="1" target="Dg23MXe1iFPbouFXRMG2-60" edge="1">
          <mxGeometry relative="1" as="geometry">
            <mxPoint x="-385.5" y="301" as="targetPoint" />
            <mxPoint x="-676.5" y="287.25" as="sourcePoint" />
            <Array as="points">
              <mxPoint x="-457" y="287" />
              <mxPoint x="-457" y="440" />
            </Array>
          </mxGeometry>
        </mxCell>
        <mxCell id="Dg23MXe1iFPbouFXRMG2-78" style="edgeStyle=orthogonalEdgeStyle;rounded=0;orthogonalLoop=1;jettySize=auto;html=1;fontSize=18;strokeColor=#475E75;fontFamily=Arial;fontColor=default;targetPerimeterSpacing=15;endSize=4;startSize=4;endArrow=blockThin;endFill=1;strokeWidth=1.5;startArrow=none;startFill=0;entryX=0;entryY=0.5;entryDx=0;entryDy=0;jumpStyle=none;exitX=1;exitY=0.25;exitDx=0;exitDy=0;" parent="1" target="Dg23MXe1iFPbouFXRMG2-62" edge="1">
          <mxGeometry relative="1" as="geometry">
            <mxPoint x="-271" y="439.5" as="targetPoint" />
            <mxPoint x="-676.5" y="261.7499999999999" as="sourcePoint" />
            <Array as="points">
              <mxPoint x="-321" y="262" />
              <mxPoint x="-321" y="440" />
            </Array>
          </mxGeometry>
        </mxCell>
        <mxCell id="Dg23MXe1iFPbouFXRMG2-106" value="" style="endArrow=blockThin;html=1;strokeColor=#475e75;bendable=1;rounded=0;endFill=1;endSize=4;strokeWidth=1.5;startSize=4;startArrow=none;startFill=0;fontFamily=Arial;" parent="1" edge="1">
          <mxGeometry width="50" height="50" relative="1" as="geometry">
            <mxPoint x="-196" y="155.34" as="sourcePoint" />
            <mxPoint x="-52" y="155" as="targetPoint" />
            <Array as="points" />
          </mxGeometry>
        </mxCell>
        <mxCell id="eP-Ncv_d5URBy7ixXD03-39" value="" style="endArrow=none;html=1;strokeColor=#5B738B;bendable=1;rounded=1;endFill=0;endSize=3;strokeWidth=3;jumpStyle=gap;fontFamily=Arial;" parent="1" edge="1">
          <mxGeometry width="50" height="50" relative="1" as="geometry">
            <mxPoint x="-111" y="72" as="sourcePoint" />
            <mxPoint x="-111" y="426" as="targetPoint" />
            <Array as="points" />
          </mxGeometry>
        </mxCell>
        <mxCell id="eP-Ncv_d5URBy7ixXD03-46" value="" style="group;fontFamily=Arial;" parent="1" vertex="1" connectable="0">
          <mxGeometry x="39" y="415" width="110" height="95.00000000000011" as="geometry" />
        </mxCell>
        <mxCell id="eP-Ncv_d5URBy7ixXD03-45" value="&lt;b style=&quot;border-color: var(--border-color); font-size: 14px;&quot;&gt;&lt;font style=&quot;border-color: var(--border-color);&quot; color=&quot;#1d2d3e&quot;&gt;Cloud Connector&lt;/font&gt;&lt;/b&gt;&lt;font color=&quot;#1d2d3e&quot; size=&quot;1&quot; face=&quot;arial&quot; style=&quot;&quot;&gt;&lt;b style=&quot;font-size: 14px;&quot;&gt;&lt;br&gt;&lt;/b&gt;&lt;/font&gt;" style="text;html=1;align=center;verticalAlign=top;resizable=1;points=[[0,0.5,0,0,0],[0.21,1,0,0,0],[0.5,1,0,0,0],[0.85,1,0,0,0],[1,0.5,0,0,0]];autosize=0;strokeColor=none;fillColor=none;fontSize=12;fontColor=default;fontFamily=Arial;fixedWidth=1;imageWidth=24;whiteSpace=wrap;labelBackgroundColor=none;" parent="eP-Ncv_d5URBy7ixXD03-46" vertex="1">
          <mxGeometry y="49.000000000000114" width="110" height="46" as="geometry" />
        </mxCell>
        <mxCell id="Psehi_XRF0l5fgB3HZDR-7" value="" style="shape=mxgraph.sap.icon;labelPosition=center;verticalLabelPosition=bottom;align=center;verticalAlign=top;strokeWidth=1;strokeColor=#D5DADD;fillColor=#EDEFF0;gradientColor=#FCFCFC;gradientDirection=west;aspect=fixed;SAPIcon=Cloud_Connector2" vertex="1" parent="eP-Ncv_d5URBy7ixXD03-46">
          <mxGeometry x="29" y="1" width="50" height="50" as="geometry" />
        </mxCell>
        <mxCell id="eP-Ncv_d5URBy7ixXD03-47" value="&lt;font color=&quot;#475f75&quot; size=&quot;1&quot;&gt;&lt;b style=&quot;&quot;&gt;Secure tunnel&lt;/b&gt;&lt;/font&gt;" style="rounded=1;whiteSpace=wrap;html=1;arcSize=50;strokeColor=#475f75;fillColor=default;strokeWidth=1.5;fontFamily=Arial;" parent="1" vertex="1">
          <mxGeometry x="-146" y="431.5" width="72" height="16" as="geometry" />
        </mxCell>
        <mxCell id="lbPgFuZumCOXme4oE2IH-33" value="&lt;font color=&quot;#1d2d3e&quot; face=&quot;arial&quot;&gt;&lt;span style=&quot;font-size: 16px; text-wrap: nowrap;&quot;&gt;&lt;b&gt;SAP Solution&lt;br&gt;Manager&lt;/b&gt;&lt;/span&gt;&lt;/font&gt;" style="rounded=1;whiteSpace=wrap;html=1;strokeColor=#188918;fillColor=#FFFFFF;arcSize=16;absoluteArcSize=1;imageWidth=64;imageHeight=64;strokeWidth=1.5;dashed=1;dashPattern=1 2;align=left;fontFamily=Arial;" parent="1" vertex="1">
          <mxGeometry x="119" y="130" width="110" height="50" as="geometry" />
        </mxCell>
        <mxCell id="lbPgFuZumCOXme4oE2IH-34" value="&lt;b style=&quot;forced-color-adjust: none; font-style: normal; font-variant-ligatures: normal; font-variant-caps: normal; letter-spacing: normal; orphans: 2; text-indent: 0px; text-transform: none; widows: 2; word-spacing: 0px; -webkit-text-stroke-width: 0px; white-space: nowrap; background-color: rgb(255, 255, 255); text-decoration-thickness: initial; text-decoration-style: initial; text-decoration-color: initial; color: rgb(29, 45, 62); font-family: arial; font-size: 16px;&quot;&gt;SAP&lt;br style=&quot;forced-color-adjust: none;&quot;&gt;Focused Run&lt;/b&gt;" style="rounded=1;whiteSpace=wrap;html=1;strokeColor=#188918;fillColor=#FFFFFF;arcSize=16;absoluteArcSize=1;imageWidth=64;imageHeight=64;strokeWidth=1.5;dashed=1;dashPattern=1 2;align=left;fontFamily=Arial;" parent="1" vertex="1">
          <mxGeometry x="-33" y="130" width="110" height="50" as="geometry" />
        </mxCell>
        <mxCell id="lbPgFuZumCOXme4oE2IH-5" value="" style="rounded=0;whiteSpace=wrap;html=1;strokeColor=#eaecee;strokeWidth=1.5;arcSize=16;fillColor=#FFFFFF;perimeterSpacing=0;imageHeight=24;absoluteArcSize=1;points=[];connectable=0;container=0;fontFamily=Arial;" parent="1" vertex="1">
          <mxGeometry x="-263" y="577" width="507" height="93" as="geometry" />
        </mxCell>
        <mxCell id="lbPgFuZumCOXme4oE2IH-6" value="&lt;font style=&quot;font-size: 10px;&quot; face=&quot;arial&quot; color=&quot;#1d2d3e&quot;&gt;LEGEND&lt;/font&gt;" style="text;html=1;align=left;verticalAlign=top;resizable=0;points=[];autosize=1;strokeColor=none;fillColor=none;fontSize=12;fontColor=default;fontFamily=Arial;" parent="1" vertex="1">
          <mxGeometry x="-253.0017948717948" y="581" width="60" height="30" as="geometry" />
        </mxCell>
        <mxCell id="lbPgFuZumCOXme4oE2IH-13" value="&lt;div style=&quot;font-size: 10px; line-height: 100%;&quot;&gt;&lt;span style=&quot;font-family: arial; font-size: 10px; background-color: initial;&quot;&gt;&lt;font style=&quot;font-size: 10px;&quot;&gt;Optional component&lt;/font&gt;&lt;/span&gt;&lt;/div&gt;" style="text;html=1;align=left;verticalAlign=middle;resizable=0;points=[];autosize=1;strokeColor=none;fillColor=none;fontSize=10;fontColor=#1D2D3E;fontFamily=Arial;labelPosition=center;verticalLabelPosition=middle;" parent="1" vertex="1">
          <mxGeometry x="131.31999999999982" y="614" width="108" height="22" as="geometry" />
        </mxCell>
        <mxCell id="lbPgFuZumCOXme4oE2IH-15" value="&lt;div style=&quot;font-size: 10px; line-height: 100%;&quot;&gt;&lt;span style=&quot;font-family: arial; font-size: 10px; background-color: initial;&quot;&gt;&lt;font style=&quot;font-size: 10px;&quot;&gt;Application&lt;/font&gt;&lt;/span&gt;&lt;/div&gt;" style="text;html=1;align=left;verticalAlign=middle;resizable=0;points=[];autosize=1;strokeColor=none;fillColor=none;fontSize=10;fontColor=#1D2D3E;fontFamily=Arial;labelPosition=center;verticalLabelPosition=middle;" parent="1" vertex="1">
          <mxGeometry x="-228" y="637" width="67" height="22" as="geometry" />
        </mxCell>
        <mxCell id="lbPgFuZumCOXme4oE2IH-16" value="&lt;div style=&quot;font-size: 10px; line-height: 100%;&quot;&gt;&lt;span style=&quot;font-family: arial; font-size: 10px; background-color: initial;&quot;&gt;&lt;font style=&quot;font-size: 10px;&quot;&gt;description&lt;/font&gt;&lt;/span&gt;&lt;/div&gt;" style="text;html=1;align=left;verticalAlign=middle;resizable=0;points=[];autosize=1;strokeColor=none;fillColor=none;fontSize=10;fontColor=#1D2D3E;fontFamily=Arial;labelPosition=center;verticalLabelPosition=middle;" parent="1" vertex="1">
          <mxGeometry x="-135.9999999999999" y="612.5" width="66" height="23" as="geometry" />
        </mxCell>
        <mxCell id="lbPgFuZumCOXme4oE2IH-17" value="&lt;div style=&quot;&quot;&gt;&lt;font size=&quot;1&quot; face=&quot;arial&quot;&gt;text&lt;/font&gt;&lt;/div&gt;" style="text;html=1;align=left;verticalAlign=middle;resizable=0;points=[];autosize=1;strokeColor=none;fillColor=none;fontSize=12;fontColor=#556B82;fontFamily=Arial;" parent="1" vertex="1">
          <mxGeometry x="-158.9999999999999" y="611" width="34" height="26" as="geometry" />
        </mxCell>
        <mxCell id="lbPgFuZumCOXme4oE2IH-19" value="" style="shape=image;verticalLabelPosition=bottom;verticalAlign=top;imageAspect=0;aspect=fixed;image=data:image/svg+xml,PHN2ZyB4bWxucz0iaHR0cDovL3d3dy53My5vcmcvMjAwMC9zdmciIGZpbGw9Im5vbmUiIHZpZXdCb3g9IjAgMCA0OSA0OSIgaGVpZ2h0PSI0OSIgd2lkdGg9IjQ5Ij4mI3hhOzxjaXJjbGUgc3Ryb2tlLXdpZHRoPSIwLjg1NzE0MyIgc3Ryb2tlPSIjRDVEQUREIiBmaWxsPSJ1cmwoI3BhaW50MF9saW5lYXJfMjYyMl8yMDQ3NSkiIHI9IjIzLjU3MTQiIGN5PSIyNC4wMzQ5IiBjeD0iMjQuNSIvPiYjeGE7PHBhdGggZmlsbD0idXJsKCNwYWludDFfcmFkaWFsXzI2MjJfMjA0NzUpIiBkPSJNMjQuMzkzMSAxMi4yMzcxQzIwLjExMDcgMTIuMjM3MSAxNy4wNjgxIDE1LjcyMzEgMTYuNTYxMSAxOS4zNjI1QzE1LjE4MzYgMTkuNDQ0NCAxMy45NjcyIDE5Ljk2MjEgMTMuMDIyNSAyMC44MzE3QzExLjc0NDUgMjIuMDA4MSAxMS4wODQ0IDIzLjcxNTYgMTEuMDg0NCAyNS41MTYzQzExLjA4NDQgMjcuMTg5NyAxMS41OTIgMjguNzcxNSAxMi43MzE2IDI5Ljk0MDlDMTMuNTg2MSAzMC44MTc4IDE0LjcwNzcgMzEuMzcyNCAxNi4wMTcgMzEuNTk4NEMxNi4xMzc2IDMxLjM1MzUgMTYuMjczNSAzMS4xMTY4IDE2LjQyNTIgMzAuODg5MkwxNi40NDEgMzAuODY1NUwxNi40NTQ4IDMwLjg0NjFDMTYuNzA2OSAzMC40OTAxIDE2Ljk5NDggMzAuMTY2IDE3LjMxNjkgMjkuODc2MUMxNy4xODMxIDI5LjQzMTcgMTcuMTE4IDI4Ljk2NDUgMTcuMTE4IDI4LjQ4MzVDMTcuMTE4IDI3Ljg1NDkgMTcuMjM4NiAyNy4yNDEzIDE3LjQ4NDkgMjYuNjU5MkMxNy43MiAyNi4xMDMzIDE4LjA1MTMgMjUuNjAwMSAxOC40ODI0IDI1LjE2OTFDMTguOTE4IDI0LjczMzQgMTkuNDI1IDI0LjM5MTYgMTkuOTkyNiAyNC4xNTE1QzIwLjU3NDcgMjMuOTA1MiAyMS4xODgyIDIzLjc4NDYgMjEuODE2OCAyMy43ODQ2QzIyLjA3NTkgMjMuNzg0NiAyMi4zMzI0IDIzLjgwNTEgMjIuNTg1MyAyMy44NDY0QzIyLjkwNjUgMjMuNjE3OSAyMy4yNTIyIDIzLjQyNTEgMjMuNjIwNCAyMy4yNjkzQzI0LjI4NTEgMjIuOTg4MSAyNC45ODYzIDIyLjg0OTcgMjUuNzA4OSAyMi44NDk3QzI2LjQzMTYgMjIuODQ5NyAyNy4xMzI3IDIyLjk4ODEgMjcuNzk3NSAyMy4yNjkzQzI4LjQ0MzYgMjMuNTQyNyAyOS4wMTc2IDIzLjkzMjYgMjkuNTA0MyAyNC40MzY1QzMwLjAwODIgMjQuOTIzMiAzMC4zOTgxIDI1LjQ5NzIgMzAuNjcxNSAyNi4xNDMzQzMwLjk1MjcgMjYuODA4MSAzMS4wOTExIDI3LjUwOTMgMzEuMDkxMSAyOC4yMzE5QzMxLjA5MTEgMjguOTI1MiAzMC45NjM3IDI5LjU5ODggMzAuNzA1IDMwLjIzOTVDMzEuMTk2OSAzMC42Mjg4IDMxLjYzNDYgMzEuMDg3NyAzMi4wMTUyIDMxLjYxMjdDMzUuMjc5MiAzMS4wNDI2IDM3Ljk5OTkgMjguMzY4IDM3Ljk5OTkgMjQuMzU5MUMzNy45OTk5IDIwLjM3NTEgMzUuMTUyNiAxNy4zMTM1IDMxLjcyNDcgMTYuOTg5N0MzMC4zNTA3IDE0LjE0ODMgMjcuOCAxMi4yMzcxIDI0LjM5MzEgMTIuMjM3MVoiIGNsaXAtcnVsZT0iZXZlbm9kZCIgZmlsbC1ydWxlPSJldmVub2RkIi8+JiN4YTs8cGF0aCBmaWxsPSJ1cmwoI3BhaW50Ml9yYWRpYWxfMjYyMl8yMDQ3NSkiIGQ9Ik0yOC4zMzY4IDMwLjgwNzhDMjkuMzA4MiAzMS4xODk0IDMwLjA5NzQgMzEuODEzOCAzMC43MDQ1IDMyLjY4MTFDMzEuMzExNiAzMy41NDg0IDMxLjYxNTIgMzQuNTI4NSAzMS42MTUyIDM1LjYyMTNWMzcuMTA0NEMzMS42MTUyIDM3LjMxMjUgMzEuNTM3MSAzNy40ODYgMzEuMzgxIDM3LjYyNDdDMzEuMjQyMiAzNy43NjM1IDMxLjA3NzQgMzcuODMyOSAzMC44ODY2IDM3LjgzMjlIMjkuNDAzNkMyOS4xOTU0IDM3LjgzMjkgMjkuMDEzMyAzNy43NjM1IDI4Ljg1NzIgMzcuNjI0N0MyOC43MTg0IDM3LjQ4NiAyOC42NDkgMzcuMzEyNSAyOC42NDkgMzcuMTA0NEMyOC42NDkgMzYuODk2MiAyOC43MTg0IDM2LjcyMjcgMjguODU3MiAzNi41ODRDMjkuMDEzMyAzNi40Mjc5IDI5LjE5NTQgMzYuMzQ5OCAyOS40MDM2IDM2LjM0OThIMzAuMTMyMVYzNS42MjEzQzMwLjEzMjEgMzUuMTE4MiAzMC4wMzY3IDM0LjY0MTIgMjkuODQ1OSAzNC4xOTAyQzI5LjY1NTEgMzMuNzM5MiAyOS4zODYyIDMzLjM0OSAyOS4wMzkzIDMzLjAxOTRDMjguNzA5NyAzMi42NzI1IDI4LjMxOTUgMzIuNDAzNiAyNy44Njg1IDMyLjIxMjhDMjcuNDM0OCAzMi4wMjIgMjYuOTU3OCAzMS45MjY2IDI2LjQzNzUgMzEuOTI2NkgyNC45ODA0QzI0LjQ2IDMxLjkyNjYgMjMuOTc0NCAzMi4wMjIgMjMuNTIzNCAzMi4yMTI4QzIzLjA4OTcgMzIuNDAzNiAyMi42OTk0IDMyLjY3MjUgMjIuMzUyNSAzMy4wMTk0QzIyLjAyMyAzMy4zNDkgMjEuNzYyOCAzMy43MzkyIDIxLjU3MiAzNC4xOTAyQzIxLjM4MTIgMzQuNjQxMiAyMS4yODU4IDM1LjExODIgMjEuMjg1OCAzNS42MjEzVjM2LjM0OThIMjIuMDE0M0MyMi4yMjI0IDM2LjM0OTggMjIuMzk1OSAzNi40Mjc5IDIyLjUzNDcgMzYuNTg0QzIyLjY3MzQgMzYuNzIyNyAyMi43NDI4IDM2Ljg5NjIgMjIuNzQyOCAzNy4xMDQ0QzIyLjc0MjggMzcuMzEyNSAyMi42NzM0IDM3LjQ4NiAyMi41MzQ3IDM3LjYyNDdDMjIuMzk1OSAzNy43NjM1IDIyLjIyMjQgMzcuODMyOSAyMi4wMTQzIDM3LjgzMjlIMjAuNTMxMkMyMC4zNDA0IDM3LjgzMjkgMjAuMTY3IDM3Ljc2MzUgMjAuMDEwOSAzNy42MjQ3QzE5Ljg3MjEgMzcuNDg2IDE5LjgwMjcgMzcuMzEyNSAxOS44MDI3IDM3LjEwNDRMMTkuODAyNyAzNi4wNTAySDE3LjgyMzRDMTcuNjMyOCAzNi4wNTAyIDE3LjQ2MTYgMzUuOTc5NSAxNy4zMTQ2IDM1Ljg0ODhMMTcuMzA3NSAzNS44NDI1QzE3LjE2ODEgMzUuNzAzMSAxNy4wOTk4IDM1LjUyNzEgMTcuMDk5OCAzNS4zMjY1VjM0LjE4MjdDMTcuMDk5OCAzMy43MzkyIDE3LjE2MjEgMzMuMzIxIDE3LjI4ODEgMzIuOTI5MUwxNy4yODkyIDMyLjkyNTlDMTcuNDI3MiAzMi41MjU2IDE3LjYwNzEgMzIuMTU4NiAxNy44MjkzIDMxLjgyNTNMMTcuODMxOCAzMS44MjE1QzE4LjA2NzggMzEuNDg4MyAxOC4zNDU4IDMxLjE5NjQgMTguNjY1MiAzMC45NDYxQzE4LjkyNDIgMzAuNzMyNCAxOS4yMDU5IDMwLjU1NSAxOS41MTAxIDMwLjQxNEMxOS4wMzk4IDI5Ljg4ODUgMTguODA1NSAyOS4yNDE5IDE4LjgwNTUgMjguNDgzNUMxOC44MDU1IDI4LjA3NDUgMTguODgzMiAyNy42ODUxIDE5LjAzOSAyNy4zMTY3QzE5LjE5MzkgMjYuOTUwNyAxOS40MDYgMjYuNjMyIDE5LjY3NTYgMjYuMzYyM0MxOS45NTc5IDI2LjA4MDEgMjAuMjgzIDI1Ljg2MDkgMjAuNjUwMSAyNS43MDU2QzIxLjAxODQgMjUuNTQ5OCAyMS40MDc4IDI1LjQ3MjEgMjEuODE2OCAyNS40NzIxQzIyLjIyNTkgMjUuNDcyMSAyMi42MTUyIDI1LjU0OTggMjIuOTgzNiAyNS43MDU2TDIzLjAwMDggMjUuNzEzQzIzLjAyNzEgMjUuNjg0OSAyMy4wNTM4IDI1LjY1NzMgMjMuMDgxIDI1LjYzQzIzLjQyOCAyNS4yODMxIDIzLjgyNjkgMjUuMDE0MiAyNC4yNzc5IDI0LjgyMzRDMjQuNzI4OSAyNC42MzI2IDI1LjIwNTkgMjQuNTM3MiAyNS43MDg5IDI0LjUzNzJDMjYuMjEyIDI0LjUzNzIgMjYuNjg5IDI0LjYzMjYgMjcuMTQgMjQuODIzNEMyNy41OTA5IDI1LjAxNDIgMjcuOTgxMiAyNS4yODMxIDI4LjMxMDggMjUuNjNDMjguNjU3NyAyNS45NTk2IDI4LjkyNjYgMjYuMzQ5OSAyOS4xMTc0IDI2LjgwMDlDMjkuMzA4MiAyNy4yNTE5IDI5LjQwMzYgMjcuNzI4OSAyOS40MDM2IDI4LjIzMTlDMjkuNDAzNiAyOC43MzQ5IDI5LjMwODIgMjkuMjEyIDI5LjExNzQgMjkuNjYzQzI4LjkyNjYgMzAuMDk2NiAyOC42NjY0IDMwLjQ3ODIgMjguMzM2OCAzMC44MDc4Wk0yMC4wMzY5IDM0LjA2MDFDMTkuOTgyMiAzNC4yMzAxIDE5LjkzNzIgMzQuNDA0MyAxOS45MDE3IDM0LjU4MjdIMTguNTY3MlYzNC4xODI3QzE4LjU2NzIgMzMuODE1NyAxOC42MzY3IDMzLjQ2OTMgMTguNzc1MiAzMy4xNDJDMTguOTE0NiAzMi44MTI0IDE5LjEwMzkgMzIuNTI5IDE5LjM0MjYgMzIuMjkwM0MxOS41OTYyIDMyLjAzNjcgMTkuODgwMyAzMS44NDEyIDIwLjE5NTMgMzEuNzAyNEMyMC41MjE2IDMxLjU2NDUgMjAuODc0MyAzMS40OTQ5IDIxLjI1NDkgMzEuNDk0OUgyMS44NzA4QzIxLjgzMTUgMzEuNTI1NCAyMS43OTI2IDMxLjU1NjYgMjEuNzU0MSAzMS41ODg0QzIxLjM1NTEgMzEuOTAwNiAyMS4wMDgyIDMyLjI2NDggMjAuNzEzNCAzMi42ODExQzIwLjQzNTggMzMuMDk3NCAyMC4yMTAzIDMzLjU1NzEgMjAuMDM2OSAzNC4wNjAxWk0yNS43MDg5IDI2LjAyMDNDMjUuMTAxOCAyNi4wMjAzIDI0LjU4MTUgMjYuMjM3MSAyNC4xNDc4IDI2LjY3MDhDMjMuNzE0MiAyNy4xMDQ0IDIzLjQ5NzMgMjcuNjI0OCAyMy40OTczIDI4LjIzMTlDMjMuNDk3MyAyOC44MzkgMjMuNzE0MiAyOS4zNTk0IDI0LjE0NzggMjkuNzkzQzI0LjU4MTUgMzAuMjI2NyAyNS4xMDE4IDMwLjQ0MzUgMjUuNzA4OSAzMC40NDM1QzI2LjMxNiAzMC40NDM1IDI2LjgzNjQgMzAuMjI2NyAyNy4yNyAyOS43OTNDMjcuNzAzNyAyOS4zNTk0IDI3LjkyMDUgMjguODM5IDI3LjkyMDUgMjguMjMxOUMyNy45MjA1IDI3LjYyNDggMjcuNzAzNyAyNy4xMDQ0IDI3LjI3IDI2LjY3MDhDMjYuODM2NCAyNi4yMzcxIDI2LjMxNiAyNi4wMjAzIDI1LjcwODkgMjYuMDIwM1pNMjIuMDE0MyAyOC4yMzE5QzIyLjAxNDMgMjguODU5NiAyMi4xNDM2IDI5LjQyMTEgMjIuNDAyMyAyOS45MTYzQzIyLjIyMjMgMjkuOTkwNiAyMi4wMjc1IDMwLjAyNzQgMjEuODE2OCAzMC4wMjc0QzIxLjM5MiAzMC4wMjc0IDIxLjAzMTcgMjkuODc3NiAyMC43MjcyIDI5LjU3MzFDMjAuNDIyOCAyOS4yNjg3IDIwLjI3MjkgMjguOTA4MyAyMC4yNzI5IDI4LjQ4MzVDMjAuMjcyOSAyOC4wNTg3IDIwLjQyMjggMjcuNjk4MyAyMC43MjcyIDI3LjM5MzlDMjEuMDMxNyAyNy4wODk0IDIxLjM5MiAyNi45Mzk2IDIxLjgxNjggMjYuOTM5NkMyMS45NjA1IDI2LjkzOTYgMjIuMDk2OSAyNi45NTY3IDIyLjIyNjIgMjYuOTkxMkMyMi4wODQ5IDI3LjM4NTUgMjIuMDE0MyAyNy43OTkxIDIyLjAxNDMgMjguMjMxOVoiIGNsaXAtcnVsZT0iZXZlbm9kZCIgZmlsbC1ydWxlPSJldmVub2RkIi8+JiN4YTs8ZGVmcz4mI3hhOzxsaW5lYXJHcmFkaWVudCBncmFkaWVudFVuaXRzPSJ1c2VyU3BhY2VPblVzZSIgeTI9IjQ0LjI3OTIiIHgyPSI0MS41NjQ1IiB5MT0iNi44NDc3NSIgeDE9IjQuODUyODciIGlkPSJwYWludDBfbGluZWFyXzI2MjJfMjA0NzUiPiYjeGE7PHN0b3Agc3RvcC1jb2xvcj0id2hpdGUiLz4mI3hhOzxzdG9wIHN0b3AtY29sb3I9IiNFQUVDRUUiIG9mZnNldD0iMSIvPiYjeGE7PC9saW5lYXJHcmFkaWVudD4mI3hhOzxyYWRpYWxHcmFkaWVudCBncmFkaWVudFRyYW5zZm9ybT0idHJhbnNsYXRlKDE1LjI1ODMgMTUuOTk1NCkgcm90YXRlKDQzLjg3NzkpIHNjYWxlKDI1Ljg1MjQgNDguODExNykiIGdyYWRpZW50VW5pdHM9InVzZXJTcGFjZU9uVXNlIiByPSIxIiBjeT0iMCIgY3g9IjAiIGlkPSJwYWludDFfcmFkaWFsXzI2MjJfMjA0NzUiPiYjeGE7PHN0b3Agc3RvcC1jb2xvcj0iIzAxOTVGRiIvPiYjeGE7PHN0b3Agc3RvcC1jb2xvcj0iIzExNDdFOSIgb2Zmc2V0PSIxIi8+JiN4YTs8L3JhZGlhbEdyYWRpZW50PiYjeGE7PHJhZGlhbEdyYWRpZW50IGdyYWRpZW50VHJhbnNmb3JtPSJ0cmFuc2xhdGUoMTUuMjUyMiAxNi4wODc2KSByb3RhdGUoNDMuNTYwMikgc2NhbGUoMjUuODcyNyAyMy41NDcxKSIgZ3JhZGllbnRVbml0cz0idXNlclNwYWNlT25Vc2UiIHI9IjEiIGN5PSIwIiBjeD0iMCIgaWQ9InBhaW50Ml9yYWRpYWxfMjYyMl8yMDQ3NSI+JiN4YTs8c3RvcCBzdG9wLWNvbG9yPSIjMTM0OEZGIi8+JiN4YTs8c3RvcCBzdG9wLWNvbG9yPSIjMDYyMzhEIiBvZmZzZXQ9IjEiLz4mI3hhOzwvcmFkaWFsR3JhZGllbnQ+JiN4YTs8L2RlZnM+JiN4YTs8L3N2Zz4=;points=[[0,0,0,0,0],[0,0.25,0,0,0],[0,0.5,0,0,0],[0,0.75,0,0,0],[0.25,0,0,0,0],[0.5,0,0,0,0],[0.75,0,0,0,0],[1,0,0,0,0],[1,0.25,0,0,0],[1,0.5,0,0,0],[1,0.75,0,0,0]];fontFamily=Arial;" parent="1" vertex="1">
          <mxGeometry x="-253" y="616.5" width="16" height="16" as="geometry" />
        </mxCell>
        <mxCell id="lbPgFuZumCOXme4oE2IH-21" value="&lt;div style=&quot;font-size: 10px; line-height: 100%;&quot;&gt;&lt;span style=&quot;font-family: arial; font-size: 10px; background-color: initial;&quot;&gt;&lt;font style=&quot;font-size: 10px;&quot;&gt;Step&lt;/font&gt;&lt;/span&gt;&lt;/div&gt;" style="text;html=1;align=left;verticalAlign=middle;resizable=0;points=[];autosize=1;strokeColor=none;fillColor=none;fontSize=10;fontColor=#556B82;fontFamily=Arial;labelPosition=center;verticalLabelPosition=middle;" parent="1" vertex="1">
          <mxGeometry x="-134.9999999999999" y="636" width="39" height="23" as="geometry" />
        </mxCell>
        <mxCell id="lbPgFuZumCOXme4oE2IH-22" value="&lt;div style=&quot;font-size: 10px; line-height: 100%;&quot;&gt;&lt;span style=&quot;font-family: arial; font-size: 10px; background-color: initial;&quot;&gt;&lt;font style=&quot;font-size: 10px;&quot;&gt;Service&lt;/font&gt;&lt;/span&gt;&lt;/div&gt;" style="text;html=1;align=left;verticalAlign=middle;resizable=0;points=[];autosize=1;strokeColor=none;fillColor=none;fontSize=10;fontColor=#1D2D3E;fontFamily=Arial;labelPosition=center;verticalLabelPosition=middle;" parent="1" vertex="1">
          <mxGeometry x="-228" y="612" width="51" height="23" as="geometry" />
        </mxCell>
        <mxCell id="lbPgFuZumCOXme4oE2IH-31" value="" style="shape=image;aspect=fixed;image=data:image/svg+xml,PHN2ZyB3aWR0aD0iMjQiIGhlaWdodD0iMjgiIHhtbG5zPSJodHRwOi8vd3d3LnczLm9yZy8yMDAwL3N2ZyIgeG1sbnM6eGxpbms9Imh0dHA6Ly93d3cudzMub3JnLzE5OTkveGxpbmsiIHhtbDpzcGFjZT0icHJlc2VydmUiIG92ZXJmbG93PSJoaWRkZW4iPjxnIHRyYW5zZm9ybT0idHJhbnNsYXRlKC02NTEgLTQ3NykiPjxwYXRoIGQ9Ik0yMy45MTY3IDYuMDE5ODkgMjMuOTE2NyAyMS44OTE2IDExLjk1OCAyNy45MTE0IDAgMjEuODkxNiAwIDYuMDE5ODkgNS45NjU1OSAzLjAwOTk0IDE3Ljk1MTEgOC45NzU1NCAxNy45NTExIDE0Ljk0MTEgMTUuOTI2IDE1LjkyNiAxNS45MjYgMTAuMTc5OSA2LjAwNDcxIDUuMjUzOTcgMi4wMjUxMSA3LjE2OTM0IDIuMDI1MTEgMjAuNzQyMSAxMS45NTggMjUuNjY4IDIxLjg5MTYgMjAuNzQyMSAyMS44OTE2IDcuMTY5MzQgMTEuOTQ0NiAyLjI0NDAzIDEwLjQxNCAzLjAwOTk0IDguMTcyODUgMS44NjEwNyAxMS45NTggMFpNNC4wMDQxMSAxNi45NjU3IDkuOTI4ODQgMTkuOTIxMyA5LjkyODg0IDIyLjM4NDMgNC4wMDQxMSAxOS40ODM1WiIgZmlsbD0iIzU5NTk1OSIgdHJhbnNmb3JtPSJtYXRyaXgoMS4wMDM0OCAwIDAgMSA2NTEgNDc3LjA0NCkiLz48L2c+PC9zdmc+;fontFamily=Arial;" parent="1" vertex="1">
          <mxGeometry x="-249.85000000000002" y="642" width="12.85" height="15" as="geometry" />
        </mxCell>
        <mxCell id="T485ckIuW9g4ozf2A3zm-1" value="&lt;p style=&quot;line-height: 100%;&quot;&gt;&lt;b&gt;&lt;font face=&quot;arial black&quot; style=&quot;font-size: 9px;&quot; color=&quot;#ffffff&quot;&gt;1&lt;/font&gt;&lt;/b&gt;&lt;/p&gt;" style="ellipse;whiteSpace=wrap;html=1;aspect=fixed;rotation=0;gradientColor=#a100c2;strokeColor=none;gradientDirection=east;fillColor=#f65af2;rounded=0;pointerEvents=0;fontFamily=Arial;fontSize=12;fontColor=default;spacingTop=4;spacingBottom=4;spacingLeft=4;spacingRight=4;" parent="1" vertex="1">
          <mxGeometry x="-153.9999999999999" y="641" width="14" height="14" as="geometry" />
        </mxCell>
        <mxCell id="lbPgFuZumCOXme4oE2IH-42" value="&lt;div style=&quot;font-size: 10px; line-height: 100%;&quot;&gt;&lt;span style=&quot;font-family: arial; font-size: 10px; background-color: initial;&quot;&gt;&lt;font style=&quot;font-size: 10px;&quot;&gt;Required third-party&lt;br&gt;component&lt;/font&gt;&lt;/span&gt;&lt;/div&gt;" style="text;html=1;align=left;verticalAlign=middle;resizable=0;points=[];autosize=1;strokeColor=none;fillColor=none;fontSize=10;fontColor=#1D2D3E;fontFamily=Arial;labelPosition=center;verticalLabelPosition=middle;" parent="1" vertex="1">
          <mxGeometry x="131.31999999999982" y="635" width="106" height="32" as="geometry" />
        </mxCell>
        <mxCell id="lbPgFuZumCOXme4oE2IH-41" value="" style="rounded=1;whiteSpace=wrap;html=1;strokeColor=#475E75;fillColor=#F5F6F7;arcSize=9;absoluteArcSize=1;imageWidth=64;imageHeight=64;strokeWidth=1.5;fontFamily=Arial;" parent="1" vertex="1">
          <mxGeometry x="97" y="644" width="30" height="15" as="geometry" />
        </mxCell>
        <mxCell id="lbPgFuZumCOXme4oE2IH-44" value="" style="rounded=1;whiteSpace=wrap;html=1;strokeColor=#475E75;fillColor=#ffffff;arcSize=5;absoluteArcSize=1;imageWidth=64;imageHeight=64;strokeWidth=1.5;dashed=1;fontFamily=Arial;" parent="1" vertex="1">
          <mxGeometry x="96.38" y="616" width="30.62" height="15" as="geometry" />
        </mxCell>
        <mxCell id="lbPgFuZumCOXme4oE2IH-45" value="&lt;div style=&quot;font-size: 10px; line-height: 100%;&quot;&gt;&lt;span style=&quot;font-family: arial; font-size: 10px; background-color: initial;&quot;&gt;&lt;font style=&quot;font-size: 10px;&quot;&gt;Alternative strategic&lt;br&gt;ops platform from SAP&lt;/font&gt;&lt;/span&gt;&lt;/div&gt;" style="text;html=1;align=left;verticalAlign=middle;resizable=0;points=[];autosize=1;strokeColor=none;fillColor=none;fontSize=10;fontColor=#1D2D3E;fontFamily=Arial;labelPosition=center;verticalLabelPosition=middle;" parent="1" vertex="1">
          <mxGeometry x="-36.18000000000018" y="609" width="119" height="32" as="geometry" />
        </mxCell>
        <mxCell id="lbPgFuZumCOXme4oE2IH-48" value="&lt;div style=&quot;font-size: 10px; line-height: 100%;&quot;&gt;&lt;font face=&quot;arial&quot;&gt;ABAP-based backend &lt;br&gt;system&lt;/font&gt;&lt;/div&gt;" style="text;html=1;align=left;verticalAlign=middle;resizable=0;points=[];autosize=1;strokeColor=none;fillColor=none;fontSize=10;fontColor=#1D2D3E;fontFamily=Arial;labelPosition=center;verticalLabelPosition=middle;" parent="1" vertex="1">
          <mxGeometry x="-36.18000000000018" y="635" width="116" height="32" as="geometry" />
        </mxCell>
        <mxCell id="lbPgFuZumCOXme4oE2IH-50" value="" style="rounded=1;whiteSpace=wrap;html=1;strokeColor=#188918;fillColor=#FFFFFF;arcSize=6;absoluteArcSize=1;imageWidth=64;imageHeight=64;strokeWidth=1.5;dashed=1;dashPattern=1 2;fontFamily=Arial;" parent="1" vertex="1">
          <mxGeometry x="-70" y="617" width="30.5" height="15" as="geometry" />
        </mxCell>
        <mxCell id="lbPgFuZumCOXme4oE2IH-52" value="" style="shape=image;verticalLabelPosition=bottom;labelBackgroundColor=default;verticalAlign=top;aspect=fixed;imageAspect=0;image=data:image/svg+xml,PHN2ZyB4bWxucz0iaHR0cDovL3d3dy53My5vcmcvMjAwMC9zdmciIGZpbGw9Im5vbmUiIHZpZXdCb3g9IjAgMCAxNiAxNiIgaGVpZ2h0PSIxNiIgd2lkdGg9IjE2Ij4mI3hhOzxwYXRoIGZpbGw9InVybCgjcGFpbnQwX2xpbmVhcl83ODhfOSkiIGQ9Ik0xNC41OTQgNC45MDZDMTQuODQ0IDUuMTU2IDE1LjA0MiA1LjQ0OCAxNS4xODggNS43ODFDMTUuMzU0IDYuMDk0IDE1LjQzOCA2LjQzOCAxNS40MzggNi44MTNWMTMuNUMxNS40MzggMTQuMjA4IDE1LjE5OCAxNC43OTIgMTQuNzE4IDE1LjI1QzE0LjI0IDE1LjczIDEzLjY0NiAxNS45NjkgMTIuOTM4IDE1Ljk2OUgzLjAzMDAxQzIuMzQzMDEgMTUuOTY5IDEuNzYwMDEgMTUuNzI5IDEuMjgwMDEgMTUuMjVDMC44MDEwMTIgMTQuNzkyIDAuNTYyMDEyIDE0LjIwOCAwLjU2MjAxMiAxMy41VjYuODEyQzAuNTYyMDEyIDYuMDIxIDAuODQyMDEyIDUuMzg1IDEuNDA1MDEgNC45MDZMNi4zNDQwMSAwLjYyNDk5NUM2LjgxMjI4IDAuMjIwMjA1IDcuNDExMDQgLTAuMDAxNzU1NzkgOC4wMzAwMSAtNC45Nzk3ZS0wNkM4LjY1NTAxIC00Ljk3OTdlLTA2IDkuMTk3MDEgMC4yMDc5OTUgOS42NTUwMSAwLjYyNDk5NUwxNC41OTQgNC45MDZaTTkuMjUwMDEgOS4zNzVINi43NTAwMVYxNC4zNDRIOS4yNTAwMVY5LjM3NVpNMTMuNjg4IDYuODEyQzEzLjY4OCA2LjU0MiAxMy42MDQgNi4zMjIgMTMuNDM4IDYuMTU2TDguNTAwMDEgMS44NzQ5OUM4LjE0NjAxIDEuNjA1IDcuNzgxMDEgMS42MDUgNy40MDYwMSAxLjg3NDk5TDIuNDcwMDEgNi4xNTZDMi4zMDMwMSA2LjMyMyAyLjIyMDAxIDYuNTQyIDIuMjIwMDEgNi44MTNWMTMuNUMyLjIyMDAxIDEzLjc1IDIuMjkzMDEgMTMuOTU4IDIuNDM5MDEgMTQuMTI1QzIuNjAyMzMgMTQuMjY5NiAyLjgxMzkxIDE0LjM0NzcgMy4wMzIwMSAxNC4zNDRINS4wOTUwMVY5LjM3NUM1LjA5NTAxIDguOTE3IDUuMjUxMDEgOC41MzEgNS41NjMwMSA4LjIxOUM1Ljg5NzAxIDcuODg0OTkgNi4yOTMwMSA3LjcxOSA2Ljc1MTAxIDcuNzE5SDkuMjUxMDFDOS43MDkwMSA3LjcxOSAxMC4wOTUgNy44ODQ5OSAxMC40MDcgOC4yMTlDMTAuNzIgOC41MzEgMTAuODc2IDguOTE3IDEwLjg3NiA5LjM3NVYxNC4zNDRIMTIuOTM5QzEzLjE4OSAxNC4zNDQgMTMuMzg2IDE0LjI3MSAxMy41MzIgMTQuMTI1QzEzLjYxNDEgMTQuMDQzNCAxMy42Nzg3IDEzLjk0NTkgMTMuNzIxNyAxMy44Mzg0QzEzLjc2NDcgMTMuNzMwOSAxMy43ODUyIDEzLjYxNTcgMTMuNzgyIDEzLjVMMTMuNjg4IDYuODEyWiIvPiYjeGE7PGRlZnM+JiN4YTs8bGluZWFyR3JhZGllbnQgZ3JhZGllbnRVbml0cz0idXNlclNwYWNlT25Vc2UiIHkyPSIxNS45NjkiIHgyPSI4LjAwMDAxIiB5MT0iLTEuNTI1ODhlLTA1IiB4MT0iOC4wMDAwMSIgaWQ9InBhaW50MF9saW5lYXJfNzg4XzkiPiYjeGE7PHN0b3Agc3RvcC1jb2xvcj0iIzVCNzM4QiIvPiYjeGE7PHN0b3Agc3RvcC1jb2xvcj0iIzIyMzU0OCIgb2Zmc2V0PSIxIi8+JiN4YTs8L2xpbmVhckdyYWRpZW50PiYjeGE7PC9kZWZzPiYjeGE7PC9zdmc+;fontFamily=Arial;" parent="1" vertex="1">
          <mxGeometry x="-61.5" y="643" width="15" height="15" as="geometry" />
        </mxCell>
        <mxCell id="bOL8odB5uJuSCrRT0S2--3" value="" style="endArrow=blockThin;html=1;strokeColor=#475E75;bendable=1;rounded=0;endFill=1;endSize=4;strokeWidth=1.5;startSize=4;startArrow=blockThin;startFill=1;edgeStyle=orthogonalEdgeStyle;entryX=1;entryY=0.5;entryDx=0;entryDy=0;exitX=0.5;exitY=1;exitDx=0;exitDy=0;exitPerimeter=0;fontFamily=Arial;" parent="1" source="Dg23MXe1iFPbouFXRMG2-40" target="JYNAhhOeTUmVkHHW23Wc-3" edge="1">
          <mxGeometry width="50" height="50" relative="1" as="geometry">
            <mxPoint x="-569" y="664" as="sourcePoint" />
            <mxPoint x="-535" y="749" as="targetPoint" />
          </mxGeometry>
        </mxCell>
        <mxCell id="Dg23MXe1iFPbouFXRMG2-74" value="" style="endArrow=blockThin;html=1;strokeColor=#475e75;bendable=1;rounded=0;endFill=1;endSize=4;strokeWidth=1.5;startSize=4;startArrow=none;startFill=0;exitX=0.5;exitY=1;exitDx=0;exitDy=0;entryX=0.486;entryY=0.192;entryDx=0;entryDy=0;entryPerimeter=0;dashed=1;dashPattern=1 1;fontFamily=Arial;" parent="1" target="Dg23MXe1iFPbouFXRMG2-75" edge="1">
          <mxGeometry width="50" height="50" relative="1" as="geometry">
            <mxPoint x="-647" y="546.8800000000001" as="sourcePoint" />
            <mxPoint x="-626" y="583" as="targetPoint" />
            <Array as="points" />
          </mxGeometry>
        </mxCell>
        <mxCell id="Dg23MXe1iFPbouFXRMG2-75" value="&lt;div style=&quot;&quot;&gt;&lt;span style=&quot;font-family: arial; font-size: x-small; background-color: initial;&quot;&gt;&lt;font&gt;Open APIs&lt;/font&gt;&lt;/span&gt;&lt;/div&gt;" style="text;html=1;align=center;verticalAlign=middle;resizable=0;points=[];autosize=1;strokeColor=none;fillColor=none;fontSize=12;fontColor=#556B82;fontFamily=Arial;" parent="1" vertex="1">
          <mxGeometry x="-679.5" y="579" width="66" height="26" as="geometry" />
        </mxCell>
        <mxCell id="Dg23MXe1iFPbouFXRMG2-110" value="" style="endArrow=blockThin;html=1;strokeColor=#475e75;bendable=1;rounded=0;endFill=1;endSize=4;strokeWidth=1.5;startSize=4;startArrow=none;startFill=0;exitX=1;exitY=0.5;exitDx=0;exitDy=0;exitPerimeter=0;entryX=0;entryY=0.5;entryDx=0;entryDy=0;fontFamily=Arial;" parent="1" target="Dg23MXe1iFPbouFXRMG2-28" edge="1">
          <mxGeometry width="50" height="50" relative="1" as="geometry">
            <mxPoint x="-676.5" y="437.5000000000002" as="sourcePoint" />
            <mxPoint x="-596" y="436" as="targetPoint" />
            <Array as="points" />
          </mxGeometry>
        </mxCell>
        <mxCell id="Dg23MXe1iFPbouFXRMG2-37" value="&lt;font color=&quot;#1d2d3e&quot; size=&quot;1&quot; face=&quot;arial&quot; style=&quot;&quot;&gt;&lt;b style=&quot;font-size: 14px;&quot;&gt;Business Application Studio&lt;br&gt;&lt;/b&gt;&lt;/font&gt;" style="text;html=1;align=center;verticalAlign=top;resizable=1;points=[[0,0.5,0,0,0],[0.21,1,0,0,0],[0.5,1,0,0,0],[0.85,1,0,0,0],[1,0.5,0,0,0]];autosize=0;strokeColor=none;fillColor=none;fontSize=12;fontColor=default;fontFamily=Arial;fixedWidth=1;imageWidth=24;whiteSpace=wrap;labelBackgroundColor=none;" parent="1" vertex="1">
          <mxGeometry x="-934" y="461" width="127" height="46" as="geometry" />
        </mxCell>
        <mxCell id="T485ckIuW9g4ozf2A3zm-2" value="&lt;p style=&quot;line-height: 100%;&quot;&gt;&lt;b&gt;&lt;font face=&quot;arial black&quot; style=&quot;font-size: 16px;&quot; color=&quot;#ffffff&quot;&gt;2&lt;/font&gt;&lt;/b&gt;&lt;/p&gt;" style="ellipse;whiteSpace=wrap;html=1;aspect=fixed;rotation=0;gradientColor=#a100c2;strokeColor=none;gradientDirection=east;fillColor=#f65af2;rounded=0;pointerEvents=0;fontFamily=Arial;fontSize=12;fontColor=default;spacingTop=4;spacingBottom=4;spacingLeft=4;spacingRight=4;" parent="1" vertex="1">
          <mxGeometry x="-909" y="511.66999999999996" width="30" height="30" as="geometry" />
        </mxCell>
        <mxCell id="lbPgFuZumCOXme4oE2IH-39" value="&lt;p style=&quot;line-height: 100%;&quot;&gt;&lt;b&gt;&lt;font face=&quot;arial black&quot; style=&quot;font-size: 16px;&quot; color=&quot;#ffffff&quot;&gt;1&lt;/font&gt;&lt;/b&gt;&lt;/p&gt;" style="ellipse;whiteSpace=wrap;html=1;aspect=fixed;rotation=0;gradientColor=#a100c2;strokeColor=none;gradientDirection=east;fillColor=#f65af2;rounded=0;pointerEvents=0;fontFamily=Arial;fontSize=12;fontColor=default;spacingTop=4;spacingBottom=4;spacingLeft=4;spacingRight=4;" parent="1" vertex="1">
          <mxGeometry x="-735" y="511.66999999999996" width="30" height="30" as="geometry" />
        </mxCell>
        <mxCell id="bOL8odB5uJuSCrRT0S2--1" value="" style="rounded=1;whiteSpace=wrap;html=1;strokeColor=#0070F2;strokeWidth=1.5;arcSize=16;fillColor=#FFFFFF;perimeterSpacing=0;absoluteArcSize=1;fontFamily=Arial;" parent="1" vertex="1">
          <mxGeometry x="-580" y="208.67" width="110" height="299" as="geometry" />
        </mxCell>
        <mxCell id="bOL8odB5uJuSCrRT0S2--2" value="&lt;font face=&quot;arial&quot;&gt;&lt;span&gt;DEV&lt;/span&gt;&lt;/font&gt;" style="text;html=1;align=left;verticalAlign=middle;resizable=0;points=[];autosize=1;strokeColor=none;fillColor=none;fontSize=16;fontColor=#1D2D3E;fontFamily=Arial;fontStyle=1" parent="1" vertex="1">
          <mxGeometry x="-573" y="217" width="51" height="31" as="geometry" />
        </mxCell>
        <mxCell id="Dg23MXe1iFPbouFXRMG2-28" value="" style="shape=image;aspect=fixed;image=data:image/svg+xml,PHN2ZyB3aWR0aD0iMjQiIGhlaWdodD0iMjgiIHhtbG5zPSJodHRwOi8vd3d3LnczLm9yZy8yMDAwL3N2ZyIgeG1sbnM6eGxpbms9Imh0dHA6Ly93d3cudzMub3JnLzE5OTkveGxpbmsiIHhtbDpzcGFjZT0icHJlc2VydmUiIG92ZXJmbG93PSJoaWRkZW4iPjxnIHRyYW5zZm9ybT0idHJhbnNsYXRlKC02NTEgLTQ3NykiPjxwYXRoIGQ9Ik0yMy45MTY3IDYuMDE5ODkgMjMuOTE2NyAyMS44OTE2IDExLjk1OCAyNy45MTE0IDAgMjEuODkxNiAwIDYuMDE5ODkgNS45NjU1OSAzLjAwOTk0IDE3Ljk1MTEgOC45NzU1NCAxNy45NTExIDE0Ljk0MTEgMTUuOTI2IDE1LjkyNiAxNS45MjYgMTAuMTc5OSA2LjAwNDcxIDUuMjUzOTcgMi4wMjUxMSA3LjE2OTM0IDIuMDI1MTEgMjAuNzQyMSAxMS45NTggMjUuNjY4IDIxLjg5MTYgMjAuNzQyMSAyMS44OTE2IDcuMTY5MzQgMTEuOTQ0NiAyLjI0NDAzIDEwLjQxNCAzLjAwOTk0IDguMTcyODUgMS44NjEwNyAxMS45NTggMFpNNC4wMDQxMSAxNi45NjU3IDkuOTI4ODQgMTkuOTIxMyA5LjkyODg0IDIyLjM4NDMgNC4wMDQxMSAxOS40ODM1WiIgZmlsbD0iIzU5NTk1OSIgdHJhbnNmb3JtPSJtYXRyaXgoMS4wMDM0OCAwIDAgMSA2NTEgNDc3LjA0NCkiLz48L2c+PC9zdmc+;fontFamily=Arial;" parent="1" vertex="1">
          <mxGeometry x="-541" y="418" width="34.28" height="40" as="geometry" />
        </mxCell>
        <mxCell id="Dg23MXe1iFPbouFXRMG2-51" value="&lt;font color=&quot;#1d2d3e&quot; size=&quot;1&quot; face=&quot;arial&quot; style=&quot;&quot;&gt;&lt;b style=&quot;font-size: 14px;&quot;&gt;App&lt;br&gt;&lt;/b&gt;&lt;/font&gt;" style="text;html=1;align=center;verticalAlign=top;resizable=1;points=[[0,0.5,0,0,0],[0.21,1,0,0,0],[0.5,1,0,0,0],[0.85,1,0,0,0],[1,0.5,0,0,0]];autosize=0;strokeColor=none;fillColor=none;fontSize=12;fontColor=default;fontFamily=Arial;fixedWidth=1;imageWidth=24;whiteSpace=wrap;labelBackgroundColor=none;" parent="1" vertex="1">
          <mxGeometry x="-553" y="464.67" width="59" height="46" as="geometry" />
        </mxCell>
        <mxCell id="Psehi_XRF0l5fgB3HZDR-1" value="" style="shape=mxgraph.sap.icon;labelPosition=center;verticalLabelPosition=bottom;align=center;verticalAlign=top;strokeWidth=1;strokeColor=#D5DADD;fillColor=#EDEFF0;gradientColor=#FCFCFC;gradientDirection=west;aspect=fixed;SAPIcon=Business_Application_Studio" vertex="1" parent="1">
          <mxGeometry x="-898" y="412" width="50" height="50" as="geometry" />
        </mxCell>
        <mxCell id="Psehi_XRF0l5fgB3HZDR-2" value="" style="shape=mxgraph.sap.icon;labelPosition=center;verticalLabelPosition=bottom;align=center;verticalAlign=top;strokeWidth=1;strokeColor=#D5DADD;fillColor=#EDEFF0;gradientColor=#FCFCFC;gradientDirection=west;aspect=fixed;SAPIcon=SAP_Continuous_Integration_and_Delivery" vertex="1" parent="1">
          <mxGeometry x="-726" y="414" width="50" height="50" as="geometry" />
        </mxCell>
      </root>
    </mxGraphModel>
  </diagram>
</mxfile>
